<?xml version="1.0" encoding="UTF-8" standalone="no"?><svg xmlns="http://www.w3.org/2000/svg" xmlns:xlink="http://www.w3.org/1999/xlink" contentScriptType="application/ecmascript" contentStyleType="text/css" height="1603px" preserveAspectRatio="none" style="width:1293px;height:1603px;" version="1.1" viewBox="0 0 1293 1603" width="1293.25px" zoomAndPan="magnify"><defs><filter height="300%" id="f1chjyx9j30zuv" width="300%" x="-1" y="-1"><feGaussianBlur result="blurOut" stdDeviation="3.5"/><feColorMatrix in="blurOut" result="blurOut2" type="matrix" values="0 0 0 0 0 0 0 0 0 0 0 0 0 0 0 0 0 0 .4 0"/><feOffset dx="7.0" dy="7.0" in="blurOut2" result="blurOut3"/><feBlend in="SourceGraphic" in2="blurOut3" mode="normal"/></filter></defs><g><text fill="#000000" font-family="sans-serif" font-size="31.5" lengthAdjust="spacingAndGlyphs" text-decoration="underline" textLength="330.75" x="486.5" y="36.0989">Cache Service Diagram</text><text fill="#000000" font-family="sans-serif" font-size="31.5" lengthAdjust="spacingAndGlyphs" textLength="0" x="656.25" y="79.1191"/><!--MD5=[081f105fbb29356083dc82bc91bf6910]
cluster tech.eportfolio.server.service.cache--><polygon fill="#FFFFFF" filter="url(#f1chjyx9j30zuv)" points="149.625,364.2905,611.625,364.2905,623.875,408.2507,1040.375,408.2507,1040.375,1122.0405,149.625,1122.0405,149.625,364.2905" style="stroke: #000000; stroke-width: 2.625;"/><line style="stroke: #000000; stroke-width: 2.625;" x1="149.625" x2="623.875" y1="408.2507" y2="408.2507"/><text fill="#000000" font-family="sans-serif" font-size="24.5" font-weight="bold" lengthAdjust="spacingAndGlyphs" textLength="451.5" x="156.625" y="395.8674">tech.eportfolio.server.service.cache</text><!--MD5=[26982a6751d8b7e98ba48c22805f510a]
cluster tech.eportfolio.server.service--><polygon fill="#FFFFFF" filter="url(#f1chjyx9j30zuv)" points="275.625,1211.2905,657.125,1211.2905,669.375,1255.2507,772.625,1255.2507,772.625,1389.7905,275.625,1389.7905,275.625,1211.2905" style="stroke: #000000; stroke-width: 2.625;"/><line style="stroke: #000000; stroke-width: 2.625;" x1="275.625" x2="669.375" y1="1255.2507" y2="1255.2507"/><text fill="#000000" font-family="sans-serif" font-size="24.5" font-weight="bold" lengthAdjust="spacingAndGlyphs" textLength="371" x="282.625" y="1242.8674">tech.eportfolio.server.service</text><!--MD5=[57e34225f835d174216a2a581ad5def2]
cluster org.springframework.security.core.userdetails--><polygon fill="#FFFFFF" filter="url(#f1chjyx9j30zuv)" points="167.125,128.0405,748.125,128.0405,760.375,172.0007,765.625,172.0007,765.625,306.5405,167.125,306.5405,167.125,128.0405" style="stroke: #000000; stroke-width: 2.625;"/><line style="stroke: #000000; stroke-width: 2.625;" x1="167.125" x2="760.375" y1="172.0007" y2="172.0007"/><text fill="#000000" font-family="sans-serif" font-size="24.5" font-weight="bold" lengthAdjust="spacingAndGlyphs" textLength="570.5" x="174.125" y="159.6174">org.springframework.security.core.userdetails</text><!--MD5=[fc1c39c62e1462e4ac665e4d3655256e]
class tech.eportfolio.server.service.cache.PortfolioServiceCacheImpl--><rect fill="#FEFECE" filter="url(#f1chjyx9j30zuv)" height="662.3835" id="tech.eportfolio.server.service.cache.PortfolioServiceCacheImpl" style="stroke: #A80036; stroke-width: 2.625;" width="460.25" x="551.25" y="430.7905"/><ellipse cx="647.0625" cy="458.7905" fill="#ADD1B2" rx="19.25" ry="19.25" style="stroke: #A80036; stroke-width: 1.75;"/><path d="M646.5156,469.2905 Q643.125,469.2905 641.1563,466.8022 Q639.1875,464.2866 639.1875,459.1187 Q639.1875,454.7437 641.2656,451.7905 Q643.3438,448.8374 646.9531,448.8374 Q647.7461,448.8374 648.5117,448.8374 Q649.2773,448.8374 649.8242,448.8374 Q650.2617,448.8374 650.5352,448.8374 Q650.8359,448.8374 651.5469,448.8374 L652.7773,455.2905 L650.918,455.2905 Q650.1523,453.3765 649.1406,452.5835 Q648.1563,451.7905 646.543,451.7905 Q644.5195,451.7905 643.3164,453.8687 Q642.1406,455.9194 642.1406,459.1187 Q642.1406,462.646 643.043,464.5054 Q643.9727,466.3374 646.4336,466.3374 Q648.0469,466.3374 649.168,465.353 Q650.3164,464.3413 650.918,461.9077 L652.7227,462.8101 Q652.0391,465.8726 650.3984,467.5952 Q648.7578,469.2905 646.5156,469.2905 Z "/><text fill="#000000" font-family="sans-serif" font-size="21" lengthAdjust="spacingAndGlyphs" textLength="253.75" x="682.9375" y="468.5164">PortfolioServiceCacheImpl</text><line style="stroke: #A80036; stroke-width: 2.625;" x1="553" x2="1009.75" y1="486.7905" y2="486.7905"/><line style="stroke: #A80036; stroke-width: 2.625;" x1="553" x2="1009.75" y1="500.7905" y2="500.7905"/><ellipse cx="570.5" cy="520.0405" fill="#84BE84" rx="5.25" ry="5.25" style="stroke: #038048; stroke-width: 1.75;"/><text fill="#000000" font-family="sans-serif" font-size="19.25" lengthAdjust="spacingAndGlyphs" textLength="232.75" x="586.25" y="529.851">PortfolioServiceCacheImpl()</text><ellipse cx="570.5" cy="546.3307" fill="#84BE84" rx="5.25" ry="5.25" style="stroke: #038048; stroke-width: 1.75;"/><text fill="#000000" font-family="sans-serif" font-size="19.25" lengthAdjust="spacingAndGlyphs" textLength="68.25" x="586.25" y="556.1411">create()</text><ellipse cx="570.5" cy="572.6208" fill="#84BE84" rx="5.25" ry="5.25" style="stroke: #038048; stroke-width: 1.75;"/><text fill="#000000" font-family="sans-serif" font-size="19.25" lengthAdjust="spacingAndGlyphs" textLength="129.5" x="586.25" y="582.4313">deleteContent()</text><ellipse cx="570.5" cy="598.911" fill="#84BE84" rx="5.25" ry="5.25" style="stroke: #038048; stroke-width: 1.75;"/><text fill="#000000" font-family="sans-serif" font-size="19.25" lengthAdjust="spacingAndGlyphs" textLength="96.25" x="586.25" y="608.7214">findByIdIn()</text><ellipse cx="570.5" cy="625.2012" fill="#84BE84" rx="5.25" ry="5.25" style="stroke: #038048; stroke-width: 1.75;"/><text fill="#000000" font-family="sans-serif" font-size="19.25" lengthAdjust="spacingAndGlyphs" textLength="136.5" x="586.25" y="635.0116">findByUserIdIn()</text><ellipse cx="570.5" cy="651.4913" fill="#84BE84" rx="5.25" ry="5.25" style="stroke: #038048; stroke-width: 1.75;"/><text fill="#000000" font-family="sans-serif" font-size="19.25" lengthAdjust="spacingAndGlyphs" textLength="154" x="586.25" y="661.3018">findByUsername()</text><ellipse cx="570.5" cy="677.7815" fill="#84BE84" rx="5.25" ry="5.25" style="stroke: #038048; stroke-width: 1.75;"/><text fill="#000000" font-family="sans-serif" font-size="19.25" lengthAdjust="spacingAndGlyphs" textLength="157.5" x="586.25" y="687.5919">fromPortfolioDTO()</text><ellipse cx="570.5" cy="704.0717" fill="#84BE84" rx="5.25" ry="5.25" style="stroke: #038048; stroke-width: 1.75;"/><text fill="#000000" font-family="sans-serif" font-size="19.25" lengthAdjust="spacingAndGlyphs" textLength="208.25" x="586.25" y="713.8821">pushPortfolioToActivity()</text><ellipse cx="570.5" cy="730.3618" fill="#84BE84" rx="5.25" ry="5.25" style="stroke: #038048; stroke-width: 1.75;"/><text fill="#000000" font-family="sans-serif" font-size="19.25" lengthAdjust="spacingAndGlyphs" textLength="208.25" x="586.25" y="740.1722">pushPortfolioToActivity()</text><ellipse cx="570.5" cy="756.652" fill="#84BE84" rx="5.25" ry="5.25" style="stroke: #038048; stroke-width: 1.75;"/><text fill="#000000" font-family="sans-serif" font-size="19.25" lengthAdjust="spacingAndGlyphs" textLength="199.5" x="586.25" y="766.4624">pushUpdateToActivity()</text><ellipse cx="570.5" cy="782.9421" fill="#84BE84" rx="5.25" ry="5.25" style="stroke: #038048; stroke-width: 1.75;"/><text fill="#000000" font-family="sans-serif" font-size="19.25" lengthAdjust="spacingAndGlyphs" textLength="199.5" x="586.25" y="792.7526">pushUpdateToActivity()</text><ellipse cx="570.5" cy="809.2323" fill="#84BE84" rx="5.25" ry="5.25" style="stroke: #038048; stroke-width: 1.75;"/><text fill="#000000" font-family="sans-serif" font-size="19.25" lengthAdjust="spacingAndGlyphs" textLength="56" x="586.25" y="819.0427">save()</text><ellipse cx="570.5" cy="835.5225" fill="#84BE84" rx="5.25" ry="5.25" style="stroke: #038048; stroke-width: 1.75;"/><text fill="#000000" font-family="sans-serif" font-size="19.25" lengthAdjust="spacingAndGlyphs" textLength="77" x="586.25" y="845.3329">saveAll()</text><ellipse cx="570.5" cy="861.8126" fill="#84BE84" rx="5.25" ry="5.25" style="stroke: #038048; stroke-width: 1.75;"/><text fill="#000000" font-family="sans-serif" font-size="19.25" lengthAdjust="spacingAndGlyphs" textLength="414.75" x="586.25" y="871.623">searchByKeywordWithPaginationAndVisibilities()</text><ellipse cx="570.5" cy="888.1028" fill="#84BE84" rx="5.25" ry="5.25" style="stroke: #038048; stroke-width: 1.75;"/><text fill="#000000" font-family="sans-serif" font-size="19.25" lengthAdjust="spacingAndGlyphs" textLength="367.5" x="586.25" y="897.9132">searchByTagWithPaginationAndVisibilities()</text><ellipse cx="570.5" cy="914.3929" fill="#84BE84" rx="5.25" ry="5.25" style="stroke: #038048; stroke-width: 1.75;"/><text fill="#000000" font-family="sans-serif" font-size="19.25" lengthAdjust="spacingAndGlyphs" textLength="196" x="586.25" y="924.2034">searchWithPagination()</text><ellipse cx="570.5" cy="940.6831" fill="#84BE84" rx="5.25" ry="5.25" style="stroke: #038048; stroke-width: 1.75;"/><text fill="#000000" font-family="sans-serif" font-size="19.25" lengthAdjust="spacingAndGlyphs" textLength="192.5" x="586.25" y="950.4935">searchWithVisibilities()</text><ellipse cx="570.5" cy="966.9733" fill="#84BE84" rx="5.25" ry="5.25" style="stroke: #038048; stroke-width: 1.75;"/><text fill="#000000" font-family="sans-serif" font-size="19.25" lengthAdjust="spacingAndGlyphs" textLength="192.5" x="586.25" y="976.7837">searchWithVisibilities()</text><ellipse cx="570.5" cy="993.2634" fill="#84BE84" rx="5.25" ry="5.25" style="stroke: #038048; stroke-width: 1.75;"/><text fill="#000000" font-family="sans-serif" font-size="19.25" lengthAdjust="spacingAndGlyphs" textLength="161" x="586.25" y="1003.0739">toPortfolioActivity()</text><ellipse cx="570.5" cy="1019.5536" fill="#84BE84" rx="5.25" ry="5.25" style="stroke: #038048; stroke-width: 1.75;"/><text fill="#000000" font-family="sans-serif" font-size="19.25" lengthAdjust="spacingAndGlyphs" textLength="152.25" x="586.25" y="1029.364">toUpdateActivity()</text><ellipse cx="570.5" cy="1045.8438" fill="#84BE84" rx="5.25" ry="5.25" style="stroke: #038048; stroke-width: 1.75;"/><text fill="#000000" font-family="sans-serif" font-size="19.25" lengthAdjust="spacingAndGlyphs" textLength="136.5" x="586.25" y="1055.6542">updateContent()</text><ellipse cx="570.5" cy="1072.1339" fill="#84BE84" rx="5.25" ry="5.25" style="stroke: #038048; stroke-width: 1.75;"/><text fill="#000000" font-family="sans-serif" font-size="19.25" lengthAdjust="spacingAndGlyphs" textLength="140" x="586.25" y="1081.9443">updatePortfolio()</text><!--MD5=[9bbe22565aa9f98aae6260062119cbb8]
class tech.eportfolio.server.service.cache.UserServiceCacheImpl--><rect fill="#FEFECE" filter="url(#f1chjyx9j30zuv)" height="530.9327" id="tech.eportfolio.server.service.cache.UserServiceCacheImpl" style="stroke: #A80036; stroke-width: 2.625;" width="311.5" x="177.625" y="497.2905"/><ellipse cx="218.8375" cy="525.2905" fill="#ADD1B2" rx="19.25" ry="19.25" style="stroke: #A80036; stroke-width: 1.75;"/><path d="M218.2906,535.7905 Q214.9,535.7905 212.9313,533.3022 Q210.9625,530.7866 210.9625,525.6187 Q210.9625,521.2437 213.0406,518.2905 Q215.1188,515.3374 218.7281,515.3374 Q219.5211,515.3374 220.2867,515.3374 Q221.0523,515.3374 221.5992,515.3374 Q222.0367,515.3374 222.3102,515.3374 Q222.6109,515.3374 223.3219,515.3374 L224.5523,521.7905 L222.693,521.7905 Q221.9273,519.8765 220.9156,519.0835 Q219.9313,518.2905 218.318,518.2905 Q216.2945,518.2905 215.0914,520.3687 Q213.9156,522.4194 213.9156,525.6187 Q213.9156,529.146 214.818,531.0054 Q215.7477,532.8374 218.2086,532.8374 Q219.8219,532.8374 220.943,531.853 Q222.0914,530.8413 222.693,528.4077 L224.4977,529.3101 Q223.8141,532.3726 222.1734,534.0952 Q220.5328,535.7905 218.2906,535.7905 Z "/><text fill="#000000" font-family="sans-serif" font-size="21" lengthAdjust="spacingAndGlyphs" textLength="222.25" x="246.6625" y="535.0164">UserServiceCacheImpl</text><line style="stroke: #A80036; stroke-width: 2.625;" x1="179.375" x2="487.375" y1="553.2905" y2="553.2905"/><rect fill="none" height="10.5" style="stroke: #C82930; stroke-width: 1.75;" width="10.5" x="191.625" y="567.2905"/><text fill="#000000" font-family="sans-serif" font-size="19.25" lengthAdjust="spacingAndGlyphs" textLength="127.75" x="212.625" y="582.351">logger : Logger</text><line style="stroke: #A80036; stroke-width: 2.625;" x1="179.375" x2="487.375" y1="593.5807" y2="593.5807"/><ellipse cx="196.875" cy="612.8307" fill="#84BE84" rx="5.25" ry="5.25" style="stroke: #038048; stroke-width: 1.75;"/><text fill="#000000" font-family="sans-serif" font-size="19.25" lengthAdjust="spacingAndGlyphs" textLength="204.75" x="212.625" y="622.6411">UserServiceCacheImpl()</text><ellipse cx="196.875" cy="639.1208" fill="#84BE84" rx="5.25" ry="5.25" style="stroke: #038048; stroke-width: 1.75;"/><text fill="#000000" font-family="sans-serif" font-size="19.25" lengthAdjust="spacingAndGlyphs" textLength="164.5" x="212.625" y="648.9313">changePassword()</text><ellipse cx="196.875" cy="665.411" fill="#84BE84" rx="5.25" ry="5.25" style="stroke: #038048; stroke-width: 1.75;"/><text fill="#000000" font-family="sans-serif" font-size="19.25" lengthAdjust="spacingAndGlyphs" textLength="180.25" x="212.625" y="675.2214">createGithubAvatar()</text><ellipse cx="196.875" cy="691.7012" fill="#84BE84" rx="5.25" ry="5.25" style="stroke: #038048; stroke-width: 1.75;"/><text fill="#000000" font-family="sans-serif" font-size="19.25" lengthAdjust="spacingAndGlyphs" textLength="64.75" x="212.625" y="701.5116">delete()</text><ellipse cx="196.875" cy="717.9913" fill="#84BE84" rx="5.25" ry="5.25" style="stroke: #038048; stroke-width: 1.75;"/><text fill="#000000" font-family="sans-serif" font-size="19.25" lengthAdjust="spacingAndGlyphs" textLength="120.75" x="212.625" y="727.8018">findAllActive()</text><ellipse cx="196.875" cy="744.2815" fill="#84BE84" rx="5.25" ry="5.25" style="stroke: #038048; stroke-width: 1.75;"/><text fill="#000000" font-family="sans-serif" font-size="19.25" lengthAdjust="spacingAndGlyphs" textLength="110.25" x="212.625" y="754.0919">findByEmail()</text><ellipse cx="196.875" cy="770.5717" fill="#84BE84" rx="5.25" ry="5.25" style="stroke: #038048; stroke-width: 1.75;"/><text fill="#000000" font-family="sans-serif" font-size="19.25" lengthAdjust="spacingAndGlyphs" textLength="96.25" x="212.625" y="780.3821">findByIdIn()</text><ellipse cx="196.875" cy="796.8618" fill="#84BE84" rx="5.25" ry="5.25" style="stroke: #038048; stroke-width: 1.75;"/><text fill="#000000" font-family="sans-serif" font-size="19.25" lengthAdjust="spacingAndGlyphs" textLength="154" x="212.625" y="806.6722">findByUsername()</text><ellipse cx="196.875" cy="823.152" fill="#84BE84" rx="5.25" ry="5.25" style="stroke: #038048; stroke-width: 1.75;"/><text fill="#000000" font-family="sans-serif" font-size="19.25" lengthAdjust="spacingAndGlyphs" textLength="168" x="212.625" y="832.9624">findByUsernameIn()</text><ellipse cx="196.875" cy="849.4421" fill="#84BE84" rx="5.25" ry="5.25" style="stroke: #038048; stroke-width: 1.75;"/><text fill="#000000" font-family="sans-serif" font-size="19.25" lengthAdjust="spacingAndGlyphs" textLength="266" x="212.625" y="859.2526">findDeletedUserWithContainer()</text><ellipse cx="196.875" cy="875.7323" fill="#84BE84" rx="5.25" ry="5.25" style="stroke: #038048; stroke-width: 1.75;"/><text fill="#000000" font-family="sans-serif" font-size="19.25" lengthAdjust="spacingAndGlyphs" textLength="129.5" x="212.625" y="885.5427">fromUserDTO()</text><ellipse cx="196.875" cy="902.0225" fill="#84BE84" rx="5.25" ry="5.25" style="stroke: #038048; stroke-width: 1.75;"/><text fill="#000000" font-family="sans-serif" font-size="19.25" lengthAdjust="spacingAndGlyphs" textLength="197.75" x="212.625" y="911.8329">loadUserByUsername()</text><ellipse cx="196.875" cy="928.3126" fill="#84BE84" rx="5.25" ry="5.25" style="stroke: #038048; stroke-width: 1.75;"/><text fill="#000000" font-family="sans-serif" font-size="19.25" lengthAdjust="spacingAndGlyphs" textLength="78.75" x="212.625" y="938.123">register()</text><ellipse cx="196.875" cy="954.6028" fill="#84BE84" rx="5.25" ry="5.25" style="stroke: #038048; stroke-width: 1.75;"/><text fill="#000000" font-family="sans-serif" font-size="19.25" lengthAdjust="spacingAndGlyphs" textLength="56" x="212.625" y="964.4132">save()</text><ellipse cx="196.875" cy="980.8929" fill="#84BE84" rx="5.25" ry="5.25" style="stroke: #038048; stroke-width: 1.75;"/><text fill="#000000" font-family="sans-serif" font-size="19.25" lengthAdjust="spacingAndGlyphs" textLength="77" x="212.625" y="990.7034">saveAll()</text><ellipse cx="196.875" cy="1007.1831" fill="#84BE84" rx="5.25" ry="5.25" style="stroke: #038048; stroke-width: 1.75;"/><text fill="#000000" font-family="sans-serif" font-size="19.25" lengthAdjust="spacingAndGlyphs" textLength="150.5" x="212.625" y="1016.9935">verifyPassword()</text><!--MD5=[02cb9f714b714c5ce962fad85f188e8a]
class tech.eportfolio.server.service.PortfolioService--><rect fill="#FEFECE" filter="url(#f1chjyx9j30zuv)" height="84" id="tech.eportfolio.server.service.PortfolioService" style="stroke: #A80036; stroke-width: 2.625;" width="204.75" x="539" y="1277.7905"/><ellipse cx="565.25" cy="1305.7905" fill="#ADD1B2" rx="19.25" ry="19.25" style="stroke: #A80036; stroke-width: 1.75;"/><path d="M564.7031,1316.2905 Q561.3125,1316.2905 559.3438,1313.8022 Q557.375,1311.2866 557.375,1306.1187 Q557.375,1301.7437 559.4531,1298.7905 Q561.5313,1295.8374 565.1406,1295.8374 Q565.9336,1295.8374 566.6992,1295.8374 Q567.4648,1295.8374 568.0117,1295.8374 Q568.4492,1295.8374 568.7227,1295.8374 Q569.0234,1295.8374 569.7344,1295.8374 L570.9648,1302.2905 L569.1055,1302.2905 Q568.3398,1300.3765 567.3281,1299.5835 Q566.3438,1298.7905 564.7305,1298.7905 Q562.707,1298.7905 561.5039,1300.8687 Q560.3281,1302.9194 560.3281,1306.1187 Q560.3281,1309.646 561.2305,1311.5054 Q562.1602,1313.3374 564.6211,1313.3374 Q566.2344,1313.3374 567.3555,1312.353 Q568.5039,1311.3413 569.1055,1308.9077 L570.9102,1309.8101 Q570.2266,1312.8726 568.5859,1314.5952 Q566.9453,1316.2905 564.7031,1316.2905 Z "/><text fill="#000000" font-family="sans-serif" font-size="21" lengthAdjust="spacingAndGlyphs" textLength="148.75" x="589.75" y="1315.5164">PortfolioService</text><line style="stroke: #A80036; stroke-width: 2.625;" x1="540.75" x2="742" y1="1333.7905" y2="1333.7905"/><line style="stroke: #A80036; stroke-width: 2.625;" x1="540.75" x2="742" y1="1347.7905" y2="1347.7905"/><!--MD5=[bec6028fa6bd7143a469021724499325]
class tech.eportfolio.server.service.UserService--><rect fill="#FEFECE" filter="url(#f1chjyx9j30zuv)" height="84" id="tech.eportfolio.server.service.UserService" style="stroke: #A80036; stroke-width: 2.625;" width="173.25" x="304.5" y="1277.7905"/><ellipse cx="330.75" cy="1305.7905" fill="#ADD1B2" rx="19.25" ry="19.25" style="stroke: #A80036; stroke-width: 1.75;"/><path d="M330.2031,1316.2905 Q326.8125,1316.2905 324.8438,1313.8022 Q322.875,1311.2866 322.875,1306.1187 Q322.875,1301.7437 324.9531,1298.7905 Q327.0313,1295.8374 330.6406,1295.8374 Q331.4336,1295.8374 332.1992,1295.8374 Q332.9648,1295.8374 333.5117,1295.8374 Q333.9492,1295.8374 334.2227,1295.8374 Q334.5234,1295.8374 335.2344,1295.8374 L336.4648,1302.2905 L334.6055,1302.2905 Q333.8398,1300.3765 332.8281,1299.5835 Q331.8438,1298.7905 330.2305,1298.7905 Q328.207,1298.7905 327.0039,1300.8687 Q325.8281,1302.9194 325.8281,1306.1187 Q325.8281,1309.646 326.7305,1311.5054 Q327.6602,1313.3374 330.1211,1313.3374 Q331.7344,1313.3374 332.8555,1312.353 Q334.0039,1311.3413 334.6055,1308.9077 L336.4102,1309.8101 Q335.7266,1312.8726 334.0859,1314.5952 Q332.4453,1316.2905 330.2031,1316.2905 Z "/><text fill="#000000" font-family="sans-serif" font-size="21" lengthAdjust="spacingAndGlyphs" textLength="117.25" x="355.25" y="1315.5164">UserService</text><line style="stroke: #A80036; stroke-width: 2.625;" x1="306.25" x2="476" y1="1333.7905" y2="1333.7905"/><line style="stroke: #A80036; stroke-width: 2.625;" x1="306.25" x2="476" y1="1347.7905" y2="1347.7905"/><!--MD5=[f01e5e161715ec23945fede2eec8de80]
class org.springframework.security.core.userdetails.UserDetailsService--><rect fill="#FEFECE" filter="url(#f1chjyx9j30zuv)" height="84" id="org.springframework.security.core.userdetails.UserDetailsService" style="stroke: #A80036; stroke-width: 2.625;" width="241.5" x="212.625" y="194.5405"/><ellipse cx="238.875" cy="222.5405" fill="#ADD1B2" rx="19.25" ry="19.25" style="stroke: #A80036; stroke-width: 1.75;"/><path d="M238.3281,233.0405 Q234.9375,233.0405 232.9688,230.5522 Q231,228.0366 231,222.8687 Q231,218.4937 233.0781,215.5405 Q235.1563,212.5874 238.7656,212.5874 Q239.5586,212.5874 240.3242,212.5874 Q241.0898,212.5874 241.6367,212.5874 Q242.0742,212.5874 242.3477,212.5874 Q242.6484,212.5874 243.3594,212.5874 L244.5898,219.0405 L242.7305,219.0405 Q241.9648,217.1265 240.9531,216.3335 Q239.9688,215.5405 238.3555,215.5405 Q236.332,215.5405 235.1289,217.6187 Q233.9531,219.6694 233.9531,222.8687 Q233.9531,226.396 234.8555,228.2554 Q235.7852,230.0874 238.2461,230.0874 Q239.8594,230.0874 240.9805,229.103 Q242.1289,228.0913 242.7305,225.6577 L244.5352,226.5601 Q243.8516,229.6226 242.2109,231.3452 Q240.5703,233.0405 238.3281,233.0405 Z "/><text fill="#000000" font-family="sans-serif" font-size="21" lengthAdjust="spacingAndGlyphs" textLength="185.5" x="263.375" y="232.2664">UserDetailsService</text><line style="stroke: #A80036; stroke-width: 2.625;" x1="214.375" x2="452.375" y1="250.5405" y2="250.5405"/><line style="stroke: #A80036; stroke-width: 2.625;" x1="214.375" x2="452.375" y1="264.5405" y2="264.5405"/><path d="M10.5,1472.0405 L10.5,1582.7511 A0,0 0 0 0 10.5,1582.7511 L1272.25,1582.7511 A0,0 0 0 0 1272.25,1582.7511 L1272.25,1489.5405 L1254.75,1472.0405 L648.375,1472.0405 L641.375,1362.256 L634.375,1472.0405 L10.5,1472.0405 A0,0 0 0 0 10.5,1472.0405 " fill="#FBFB77" filter="url(#f1chjyx9j30zuv)" style="stroke: #A80036; stroke-width: 1.75;"/><path d="M1254.75,1472.0405 L1254.75,1489.5405 L1272.25,1489.5405 L1254.75,1472.0405 " fill="#FBFB77" style="stroke: #A80036; stroke-width: 1.75;"/><text fill="#000000" font-family="sans-serif" font-size="22.75" lengthAdjust="spacingAndGlyphs" textLength="1225" x="21" y="1506.8619">Use PortfolioService as an example, PortfolioServiceCacheImpl implements PortfolioService interface. It is also auto-wired</text><text fill="#000000" font-family="sans-serif" font-size="22.75" lengthAdjust="spacingAndGlyphs" textLength="1186.5" x="21" y="1537.9321">to a PortfolioServiceImpl bean. All responsibilities are delegated to the PortfolioServiceImpl. PortfolioServiceCacheImpl</text><text fill="#000000" font-family="sans-serif" font-size="22.75" lengthAdjust="spacingAndGlyphs" textLength="505.75" x="21" y="1569.0023">doesn't contain business logic but manage cache.</text><!--MD5=[fba5b07d4ca818a38c0cdd909c12a28f]
reverse link tech.eportfolio.server.service.PortfolioService to tech.eportfolio.server.service.cache.PortfolioServiceCacheImpl--><path d="M615.4173,1242.4388 C615.4173,1242.4388 615.4173,1094.3573 615.4173,1094.3573 " fill="none" id="tech.eportfolio.server.service.PortfolioService&lt;-tech.eportfolio.server.service.cache.PortfolioServiceCacheImpl" style="stroke: #A80036; stroke-width: 1.75; stroke-dasharray: 7.0,7.0;"/><polygon fill="none" points="627.6673,1242.4388,615.4173,1277.4388,603.1673,1242.4388,627.6673,1242.4388" style="stroke: #A80036; stroke-width: 1.75;"/><!--MD5=[acfb672d2bdb404a88d4f95cffb8961f]
reverse link tech.eportfolio.server.service.cache.PortfolioServiceCacheImpl to tech.eportfolio.server.service.PortfolioService--><path d="M679.5828,1117.4415 C679.5828,1117.4415 679.5828,1277.6785 679.5828,1277.6785 " fill="none" id="tech.eportfolio.server.service.cache.PortfolioServiceCacheImpl&lt;-tech.eportfolio.server.service.PortfolioService" style="stroke: #A80036; stroke-width: 1.75;"/><polygon fill="#FFFFFF" points="679.5828,1094.6915,672.5828,1105.1915,679.5828,1115.6915,686.5828,1105.1915,679.5828,1094.6915" style="stroke: #A80036; stroke-width: 1.75;"/><text fill="#000000" font-family="sans-serif" font-size="22.75" lengthAdjust="spacingAndGlyphs" textLength="152.25" x="613.375" y="1177.8619">portfolioService</text><!--MD5=[c6d555e0a92485377ca0ea31e8fec079]
reverse link org.springframework.security.core.userdetails.UserDetailsService to tech.eportfolio.server.service.cache.UserServiceCacheImpl--><path d="M333.375,313.6858 C333.375,313.6858 333.375,496.7585 333.375,496.7585 " fill="none" id="org.springframework.security.core.userdetails.UserDetailsService&lt;-tech.eportfolio.server.service.cache.UserServiceCacheImpl" style="stroke: #A80036; stroke-width: 1.75; stroke-dasharray: 7.0,7.0;"/><polygon fill="none" points="321.125,313.6858,333.375,278.6858,345.625,313.6858,321.125,313.6858" style="stroke: #A80036; stroke-width: 1.75;"/><!--MD5=[bb9e8f817838c8e875fff1454fa27315]
reverse link tech.eportfolio.server.service.UserService to tech.eportfolio.server.service.cache.UserServiceCacheImpl--><path d="M362.25,1242.4388 C362.25,1242.4388 362.25,1028.1583 362.25,1028.1583 " fill="none" id="tech.eportfolio.server.service.UserService&lt;-tech.eportfolio.server.service.cache.UserServiceCacheImpl" style="stroke: #A80036; stroke-width: 1.75; stroke-dasharray: 7.0,7.0;"/><polygon fill="none" points="374.5,1242.4388,362.25,1277.4388,350,1242.4388,374.5,1242.4388" style="stroke: #A80036; stroke-width: 1.75;"/><!--MD5=[2572dd206b700b8a4379b64f9c49aa7d]
reverse link tech.eportfolio.server.service.cache.UserServiceCacheImpl to tech.eportfolio.server.service.UserService--><path d="M420,1050.7945 C420,1050.7945 420,1277.325 420,1277.325 " fill="none" id="tech.eportfolio.server.service.cache.UserServiceCacheImpl&lt;-tech.eportfolio.server.service.UserService" style="stroke: #A80036; stroke-width: 1.75;"/><polygon fill="#FFFFFF" points="420,1028.0445,413,1038.5445,420,1049.0445,427,1038.5445,420,1028.0445" style="stroke: #A80036; stroke-width: 1.75;"/><text fill="#000000" font-family="sans-serif" font-size="22.75" lengthAdjust="spacingAndGlyphs" textLength="117.25" x="408.625" y="1177.8619">userService</text><!--MD5=[dc6144dc466f9d8ef553cc96e179bc74]
@startuml
skinparam linetype polyline
skinparam linetype ortho

title __Cache Service Diagram__\n

  class tech.eportfolio.server.service.cache.PortfolioServiceCacheImpl {
      + PortfolioServiceCacheImpl()
      + create()
      + deleteContent()
      + findByIdIn()
      + findByUserIdIn()
      + findByUsername()
      + fromPortfolioDTO()
      + pushPortfolioToActivity()
      + pushPortfolioToActivity()
      + pushUpdateToActivity()
      + pushUpdateToActivity()
      + save()
      + saveAll()
      + searchByKeywordWithPaginationAndVisibilities()
      + searchByTagWithPaginationAndVisibilities()
      + searchWithPagination()
      + searchWithVisibilities()
      + searchWithVisibilities()
      + toPortfolioActivity()
      + toUpdateActivity()
      + updateContent()
      + updatePortfolio()
  }



  class tech.eportfolio.server.service.cache.UserServiceCacheImpl {
      - logger : Logger
      + UserServiceCacheImpl()
      + changePassword()
      + createGithubAvatar()
      + delete()
      + findAllActive()
      + findByEmail()
      + findByIdIn()
      + findByUsername()
      + findByUsernameIn()
      + findDeletedUserWithContainer()
      + fromUserDTO()
      + loadUserByUsername()
      + register()
      + save()
      + saveAll()
      + verifyPassword()
  }

  note bottom of tech.eportfolio.server.service.PortfolioService
    Use PortfolioService as an example, PortfolioServiceCacheImpl implements PortfolioService interface. It is also auto-wired
    to a PortfolioServiceImpl bean. All responsibilities are delegated to the PortfolioServiceImpl. PortfolioServiceCacheImpl
    doesn't contain business logic but manage cache.
  end note

  tech.eportfolio.server.service.cache.PortfolioServiceCacheImpl .up.|> tech.eportfolio.server.service.PortfolioService
  tech.eportfolio.server.service.cache.PortfolioServiceCacheImpl o- - tech.eportfolio.server.service.PortfolioService : portfolioService
  tech.eportfolio.server.service.cache.UserServiceCacheImpl .up.|> org.springframework.security.core.userdetails.UserDetailsService
  tech.eportfolio.server.service.cache.UserServiceCacheImpl .up.|> tech.eportfolio.server.service.UserService
  tech.eportfolio.server.service.cache.UserServiceCacheImpl o- - tech.eportfolio.server.service.UserService : userService

@enduml

PlantUML version 1.2020.09(Sun May 10 20:51:06 AEST 2020)
(GPL source distribution)
Java Runtime: OpenJDK Runtime Environment
JVM: OpenJDK 64-Bit Server VM
Java Version: 11.0.8+10-b944.31
Operating System: Windows 10
Default Encoding: GBK
Language: en
Country: AU
--></g></svg>