<?xml version="1.0" encoding="UTF-8" standalone="no"?><svg xmlns="http://www.w3.org/2000/svg" xmlns:xlink="http://www.w3.org/1999/xlink" contentScriptType="application/ecmascript" contentStyleType="text/css" height="1048.25px" preserveAspectRatio="none" style="width:3508px;height:1048px;" version="1.1" viewBox="0 0 3508 1048" width="3508.75px" zoomAndPan="magnify"><defs><filter height="300%" id="fzh5c361ofjny" width="300%" x="-1" y="-1"><feGaussianBlur result="blurOut" stdDeviation="3.5"/><feColorMatrix in="blurOut" result="blurOut2" type="matrix" values="0 0 0 0 0 0 0 0 0 0 0 0 0 0 0 0 0 0 .4 0"/><feOffset dx="7.0" dy="7.0" in="blurOut2" result="blurOut3"/><feBlend in="SourceGraphic" in2="blurOut3" mode="normal"/></filter></defs><g><text fill="#000000" font-family="sans-serif" font-size="31.5" lengthAdjust="spacingAndGlyphs" text-decoration="underline" textLength="355.25" x="1587.25" y="36.0989">CONFIG's Class Diagram</text><text fill="#000000" font-family="sans-serif" font-size="31.5" lengthAdjust="spacingAndGlyphs" textLength="0" x="1769.25" y="79.1191"/><!--MD5=[15b9eb38e8e52c72285c03612e741a6a]
cluster tech.eportfolio.server.config--><polygon fill="#FFFFFF" filter="url(#fzh5c361ofjny)" points="38.5,364.2905,404.25,364.2905,416.5,408.2507,1848,408.2507,1848,1027.5405,38.5,1027.5405,38.5,364.2905" style="stroke: #000000; stroke-width: 2.625;"/><line style="stroke: #000000; stroke-width: 2.625;" x1="38.5" x2="416.5" y1="408.2507" y2="408.2507"/><text fill="#000000" font-family="sans-serif" font-size="24.5" font-weight="bold" lengthAdjust="spacingAndGlyphs" textLength="355.25" x="45.5" y="395.8674">tech.eportfolio.server.config</text><!--MD5=[4213b6ce65263cef193da4527c933850]
cluster org.springframework.security.config.annotation.web.configuration--><polygon fill="#FFFFFF" filter="url(#fzh5c361ofjny)" points="239.75,128.0405,1064,128.0405,1076.25,172.0007,1081.5,172.0007,1081.5,306.5405,239.75,306.5405,239.75,128.0405" style="stroke: #000000; stroke-width: 2.625;"/><line style="stroke: #000000; stroke-width: 2.625;" x1="239.75" x2="1076.25" y1="172.0007" y2="172.0007"/><text fill="#000000" font-family="sans-serif" font-size="24.5" font-weight="bold" lengthAdjust="spacingAndGlyphs" textLength="813.75" x="246.75" y="159.6174">org.springframework.security.config.annotation.web.configuration</text><!--MD5=[4802e75af4b3f749b98feb65e0386a01]
cluster tech.eportfolio.server.security--><polygon fill="#FFFFFF" filter="url(#fzh5c361ofjny)" points="1890,770.2905,2276.75,770.2905,2289,814.2507,2971.5,814.2507,2971.5,948.7905,1890,948.7905,1890,770.2905" style="stroke: #000000; stroke-width: 2.625;"/><line style="stroke: #000000; stroke-width: 2.625;" x1="1890" x2="2289" y1="814.2507" y2="814.2507"/><text fill="#000000" font-family="sans-serif" font-size="24.5" font-weight="bold" lengthAdjust="spacingAndGlyphs" textLength="376.25" x="1897" y="801.8674">tech.eportfolio.server.security</text><!--MD5=[2ccbb923c02a4ec2c84db0fa0b13a6bd]
cluster tech.eportfolio.server.service.impl--><polygon fill="#FFFFFF" filter="url(#fzh5c361ofjny)" points="3013.5,770.2905,3452.75,770.2905,3465,814.2507,3470.25,814.2507,3470.25,948.7905,3013.5,948.7905,3013.5,770.2905" style="stroke: #000000; stroke-width: 2.625;"/><line style="stroke: #000000; stroke-width: 2.625;" x1="3013.5" x2="3465" y1="814.2507" y2="814.2507"/><text fill="#000000" font-family="sans-serif" font-size="24.5" font-weight="bold" lengthAdjust="spacingAndGlyphs" textLength="428.75" x="3020.5" y="801.8674">tech.eportfolio.server.service.impl</text><!--MD5=[ea84b9c4626022ecf327cc7797b25c49]
cluster org.springframework.web.servlet.config.annotation--><polygon fill="#FFFFFF" filter="url(#fzh5c361ofjny)" points="1384.25,128.0405,2026.5,128.0405,2038.75,172.0007,2044,172.0007,2044,306.5405,1384.25,306.5405,1384.25,128.0405" style="stroke: #000000; stroke-width: 2.625;"/><line style="stroke: #000000; stroke-width: 2.625;" x1="1384.25" x2="2038.75" y1="172.0007" y2="172.0007"/><text fill="#000000" font-family="sans-serif" font-size="24.5" font-weight="bold" lengthAdjust="spacingAndGlyphs" textLength="631.75" x="1391.25" y="159.6174">org.springframework.web.servlet.config.annotation</text><!--MD5=[80d2f0bee40b0eab337bbb25322a078f]
class tech.eportfolio.server.config.AzureStorageConfig--><rect fill="#FEFECE" filter="url(#fzh5c361ofjny)" height="162.8705" id="tech.eportfolio.server.config.AzureStorageConfig" style="stroke: #A80036; stroke-width: 2.625;" width="267.75" x="67.375" y="443.9155"/><ellipse cx="103.075" cy="471.9155" fill="#ADD1B2" rx="19.25" ry="19.25" style="stroke: #A80036; stroke-width: 1.75;"/><path d="M102.5281,482.4155 Q99.1375,482.4155 97.1688,479.9272 Q95.2,477.4116 95.2,472.2437 Q95.2,467.8687 97.2781,464.9155 Q99.3563,461.9624 102.9656,461.9624 Q103.7586,461.9624 104.5242,461.9624 Q105.2898,461.9624 105.8367,461.9624 Q106.2742,461.9624 106.5477,461.9624 Q106.8484,461.9624 107.5594,461.9624 L108.7898,468.4155 L106.9305,468.4155 Q106.1648,466.5015 105.1531,465.7085 Q104.1688,464.9155 102.5555,464.9155 Q100.532,464.9155 99.3289,466.9937 Q98.1531,469.0444 98.1531,472.2437 Q98.1531,475.771 99.0555,477.6304 Q99.9852,479.4624 102.4461,479.4624 Q104.0594,479.4624 105.1805,478.478 Q106.3289,477.4663 106.9305,475.0327 L108.7352,475.9351 Q108.0516,478.9976 106.4109,480.7202 Q104.7703,482.4155 102.5281,482.4155 Z "/><text fill="#000000" font-family="sans-serif" font-size="21" lengthAdjust="spacingAndGlyphs" textLength="190.75" x="129.675" y="481.6414">AzureStorageConfig</text><line style="stroke: #A80036; stroke-width: 2.625;" x1="69.125" x2="333.375" y1="499.9155" y2="499.9155"/><rect fill="none" height="10.5" style="stroke: #C82930; stroke-width: 1.75;" width="10.5" x="81.375" y="513.9155"/><text fill="#000000" font-family="sans-serif" font-size="19.25" lengthAdjust="spacingAndGlyphs" textLength="222.25" x="102.375" y="528.976">environment : Environment</text><line style="stroke: #A80036; stroke-width: 2.625;" x1="69.125" x2="333.375" y1="540.2057" y2="540.2057"/><ellipse cx="86.625" cy="559.4557" fill="#84BE84" rx="5.25" ry="5.25" style="stroke: #038048; stroke-width: 1.75;"/><text fill="#000000" font-family="sans-serif" font-size="19.25" lengthAdjust="spacingAndGlyphs" textLength="141.75" x="102.375" y="569.2661">cloudBlobClient()</text><ellipse cx="86.625" cy="585.7458" fill="#84BE84" rx="5.25" ry="5.25" style="stroke: #038048; stroke-width: 1.75;"/><text fill="#000000" font-family="sans-serif" font-size="19.25" lengthAdjust="spacingAndGlyphs" textLength="162.75" x="102.375" y="595.5563">testBlobContainer()</text><!--MD5=[e2cd034c6b4881242ccaf91078099a2a]
class tech.eportfolio.server.config.MailConfig--><rect fill="#FEFECE" filter="url(#fzh5c361ofjny)" height="110.2902" id="tech.eportfolio.server.config.MailConfig" style="stroke: #A80036; stroke-width: 2.625;" width="218.75" x="949.375" y="470.1655"/><ellipse cx="1003.1875" cy="498.1655" fill="#ADD1B2" rx="19.25" ry="19.25" style="stroke: #A80036; stroke-width: 1.75;"/><path d="M1002.6406,508.6655 Q999.25,508.6655 997.2813,506.1772 Q995.3125,503.6616 995.3125,498.4937 Q995.3125,494.1187 997.3906,491.1655 Q999.4688,488.2124 1003.0781,488.2124 Q1003.8711,488.2124 1004.6367,488.2124 Q1005.4023,488.2124 1005.9492,488.2124 Q1006.3867,488.2124 1006.6602,488.2124 Q1006.9609,488.2124 1007.6719,488.2124 L1008.9023,494.6655 L1007.043,494.6655 Q1006.2773,492.7515 1005.2656,491.9585 Q1004.2813,491.1655 1002.668,491.1655 Q1000.6445,491.1655 999.4414,493.2437 Q998.2656,495.2944 998.2656,498.4937 Q998.2656,502.021 999.168,503.8804 Q1000.0977,505.7124 1002.5586,505.7124 Q1004.1719,505.7124 1005.293,504.728 Q1006.4414,503.7163 1007.043,501.2827 L1008.8477,502.1851 Q1008.1641,505.2476 1006.5234,506.9702 Q1004.8828,508.6655 1002.6406,508.6655 Z "/><text fill="#000000" font-family="sans-serif" font-size="21" lengthAdjust="spacingAndGlyphs" textLength="101.5" x="1033.8125" y="507.8914">MailConfig</text><line style="stroke: #A80036; stroke-width: 2.625;" x1="951.125" x2="1166.375" y1="526.1655" y2="526.1655"/><line style="stroke: #A80036; stroke-width: 2.625;" x1="951.125" x2="1166.375" y1="540.1655" y2="540.1655"/><ellipse cx="968.625" cy="559.4155" fill="#84BE84" rx="5.25" ry="5.25" style="stroke: #038048; stroke-width: 1.75;"/><text fill="#000000" font-family="sans-serif" font-size="19.25" lengthAdjust="spacingAndGlyphs" textLength="173.25" x="984.375" y="569.226">getJavaMailSender()</text><!--MD5=[b18ad3d5d6f740e48e47e1866add8254]
class tech.eportfolio.server.config.QuartzJobConfig--><rect fill="#FEFECE" filter="url(#fzh5c361ofjny)" height="189.1606" id="tech.eportfolio.server.config.QuartzJobConfig" style="stroke: #A80036; stroke-width: 2.625;" width="316.75" x="1229.375" y="430.7905"/><ellipse cx="1301.3" cy="458.7905" fill="#ADD1B2" rx="19.25" ry="19.25" style="stroke: #A80036; stroke-width: 1.75;"/><path d="M1300.7531,469.2905 Q1297.3625,469.2905 1295.3938,466.8022 Q1293.425,464.2866 1293.425,459.1187 Q1293.425,454.7437 1295.5031,451.7905 Q1297.5813,448.8374 1301.1906,448.8374 Q1301.9836,448.8374 1302.7492,448.8374 Q1303.5148,448.8374 1304.0617,448.8374 Q1304.4992,448.8374 1304.7727,448.8374 Q1305.0734,448.8374 1305.7844,448.8374 L1307.0148,455.2905 L1305.1555,455.2905 Q1304.3898,453.3765 1303.3781,452.5835 Q1302.3938,451.7905 1300.7805,451.7905 Q1298.757,451.7905 1297.5539,453.8687 Q1296.3781,455.9194 1296.3781,459.1187 Q1296.3781,462.646 1297.2805,464.5054 Q1298.2102,466.3374 1300.6711,466.3374 Q1302.2844,466.3374 1303.4055,465.353 Q1304.5539,464.3413 1305.1555,461.9077 L1306.9602,462.8101 Q1306.2766,465.8726 1304.6359,467.5952 Q1302.9953,469.2905 1300.7531,469.2905 Z "/><text fill="#000000" font-family="sans-serif" font-size="21" lengthAdjust="spacingAndGlyphs" textLength="159.25" x="1335.95" y="468.5164">QuartzJobConfig</text><line style="stroke: #A80036; stroke-width: 2.625;" x1="1231.125" x2="1544.375" y1="486.7905" y2="486.7905"/><line style="stroke: #A80036; stroke-width: 2.625;" x1="1231.125" x2="1544.375" y1="500.7905" y2="500.7905"/><ellipse cx="1248.625" cy="520.0405" fill="#84BE84" rx="5.25" ry="5.25" style="stroke: #038048; stroke-width: 1.75;"/><text fill="#000000" font-family="sans-serif" font-size="19.25" lengthAdjust="spacingAndGlyphs" textLength="271.25" x="1264.375" y="529.851">deleteUserContainerJobDetails()</text><ellipse cx="1248.625" cy="546.3307" fill="#84BE84" rx="5.25" ry="5.25" style="stroke: #038048; stroke-width: 1.75;"/><text fill="#000000" font-family="sans-serif" font-size="19.25" lengthAdjust="spacingAndGlyphs" textLength="112" x="1264.375" y="556.1411">jobATrigger()</text><ellipse cx="1248.625" cy="572.6208" fill="#84BE84" rx="5.25" ry="5.25" style="stroke: #038048; stroke-width: 1.75;"/><text fill="#000000" font-family="sans-serif" font-size="19.25" lengthAdjust="spacingAndGlyphs" textLength="152.25" x="1264.375" y="582.4313">mockContentJob()</text><ellipse cx="1248.625" cy="598.911" fill="#84BE84" rx="5.25" ry="5.25" style="stroke: #038048; stroke-width: 1.75;"/><text fill="#000000" font-family="sans-serif" font-size="19.25" lengthAdjust="spacingAndGlyphs" textLength="211.75" x="1264.375" y="608.7214">mockContentJobTrigger()</text><!--MD5=[4bc09e2b30b3e4be31198d53c23a232c]
class tech.eportfolio.server.config.RabbitMQConfig--><rect fill="#FEFECE" filter="url(#fzh5c361ofjny)" height="162.8705" id="tech.eportfolio.server.config.RabbitMQConfig" style="stroke: #A80036; stroke-width: 2.625;" width="213.5" x="94.5" y="797.4155"/><ellipse cx="120.75" cy="825.4155" fill="#ADD1B2" rx="19.25" ry="19.25" style="stroke: #A80036; stroke-width: 1.75;"/><path d="M120.2031,835.9155 Q116.8125,835.9155 114.8438,833.4272 Q112.875,830.9116 112.875,825.7437 Q112.875,821.3687 114.9531,818.4155 Q117.0313,815.4624 120.6406,815.4624 Q121.4336,815.4624 122.1992,815.4624 Q122.9648,815.4624 123.5117,815.4624 Q123.9492,815.4624 124.2227,815.4624 Q124.5234,815.4624 125.2344,815.4624 L126.4648,821.9155 L124.6055,821.9155 Q123.8398,820.0015 122.8281,819.2085 Q121.8438,818.4155 120.2305,818.4155 Q118.207,818.4155 117.0039,820.4937 Q115.8281,822.5444 115.8281,825.7437 Q115.8281,829.271 116.7305,831.1304 Q117.6602,832.9624 120.1211,832.9624 Q121.7344,832.9624 122.8555,831.978 Q124.0039,830.9663 124.6055,828.5327 L126.4102,829.4351 Q125.7266,832.4976 124.0859,834.2202 Q122.4453,835.9155 120.2031,835.9155 Z "/><text fill="#000000" font-family="sans-serif" font-size="21" lengthAdjust="spacingAndGlyphs" textLength="157.5" x="145.25" y="835.1414">RabbitMQConfig</text><line style="stroke: #A80036; stroke-width: 2.625;" x1="96.25" x2="306.25" y1="853.4155" y2="853.4155"/><line style="stroke: #A80036; stroke-width: 2.625;" x1="96.25" x2="306.25" y1="867.4155" y2="867.4155"/><ellipse cx="113.75" cy="886.6655" fill="#84BE84" rx="5.25" ry="5.25" style="stroke: #038048; stroke-width: 1.75;"/><text fill="#000000" font-family="sans-serif" font-size="19.25" lengthAdjust="spacingAndGlyphs" textLength="112" x="129.5" y="896.476">amqpAdmin()</text><ellipse cx="113.75" cy="912.9557" fill="#84BE84" rx="5.25" ry="5.25" style="stroke: #038048; stroke-width: 1.75;"/><text fill="#000000" font-family="sans-serif" font-size="19.25" lengthAdjust="spacingAndGlyphs" textLength="96.25" x="129.5" y="922.7661">converter()</text><ellipse cx="113.75" cy="939.2458" fill="#84BE84" rx="5.25" ry="5.25" style="stroke: #038048; stroke-width: 1.75;"/><text fill="#000000" font-family="sans-serif" font-size="19.25" lengthAdjust="spacingAndGlyphs" textLength="136.5" x="129.5" y="949.0563">rabbitTemplate()</text><!--MD5=[68fd25d24fda56a87878251d7002c3c3]
class tech.eportfolio.server.config.RedisConfig--><rect fill="#FEFECE" filter="url(#fzh5c361ofjny)" height="241.741" id="tech.eportfolio.server.config.RedisConfig" style="stroke: #A80036; stroke-width: 2.625;" width="381.5" x="369.25" y="758.0405"/><ellipse cx="492.1875" cy="786.0405" fill="#ADD1B2" rx="19.25" ry="19.25" style="stroke: #A80036; stroke-width: 1.75;"/><path d="M491.6406,796.5405 Q488.25,796.5405 486.2813,794.0522 Q484.3125,791.5366 484.3125,786.3687 Q484.3125,781.9937 486.3906,779.0405 Q488.4688,776.0874 492.0781,776.0874 Q492.8711,776.0874 493.6367,776.0874 Q494.4023,776.0874 494.9492,776.0874 Q495.3867,776.0874 495.6602,776.0874 Q495.9609,776.0874 496.6719,776.0874 L497.9023,782.5405 L496.043,782.5405 Q495.2773,780.6265 494.2656,779.8335 Q493.2813,779.0405 491.668,779.0405 Q489.6445,779.0405 488.4414,781.1187 Q487.2656,783.1694 487.2656,786.3687 Q487.2656,789.896 488.168,791.7554 Q489.0977,793.5874 491.5586,793.5874 Q493.1719,793.5874 494.293,792.603 Q495.4414,791.5913 496.043,789.1577 L497.8477,790.0601 Q497.1641,793.1226 495.5234,794.8452 Q493.8828,796.5405 491.6406,796.5405 Z "/><text fill="#000000" font-family="sans-serif" font-size="21" lengthAdjust="spacingAndGlyphs" textLength="120.75" x="528.0625" y="795.7664">RedisConfig</text><line style="stroke: #A80036; stroke-width: 2.625;" x1="371" x2="749" y1="814.0405" y2="814.0405"/><rect fill="none" height="10.5" style="stroke: #C82930; stroke-width: 1.75;" width="10.5" x="383.25" y="828.0405"/><text fill="#000000" font-family="sans-serif" font-size="19.25" lengthAdjust="spacingAndGlyphs" textLength="127.75" x="404.25" y="843.101">logger : Logger</text><rect fill="none" height="10.5" style="stroke: #C82930; stroke-width: 1.75;" width="10.5" x="383.25" y="854.3307"/><text fill="#000000" font-family="sans-serif" font-size="19.25" lengthAdjust="spacingAndGlyphs" textLength="152.25" x="404.25" y="869.3911">password : String</text><rect fill="none" height="10.5" style="stroke: #C82930; stroke-width: 1.75;" width="10.5" x="383.25" y="880.6208"/><text fill="#000000" font-family="sans-serif" font-size="19.25" lengthAdjust="spacingAndGlyphs" textLength="192.5" x="404.25" y="895.6813">redisHostName : String</text><rect fill="none" height="10.5" style="stroke: #C82930; stroke-width: 1.75;" width="10.5" x="383.25" y="906.911"/><text fill="#000000" font-family="sans-serif" font-size="19.25" lengthAdjust="spacingAndGlyphs" textLength="110.25" x="404.25" y="921.9714">redisPort : int</text><line style="stroke: #A80036; stroke-width: 2.625;" x1="371" x2="749" y1="933.2012" y2="933.2012"/><polygon fill="#4177AF" points="388.5,945.4512,381.5,955.9512,395.5,955.9512" style="stroke: #1963A0; stroke-width: 1.75;"/><text fill="#000000" font-family="sans-serif" font-size="19.25" lengthAdjust="spacingAndGlyphs" textLength="211.75" x="404.25" y="962.2616">jedisConnectionFactory()</text><polygon fill="#4177AF" points="388.5,971.7413,381.5,982.2413,395.5,982.2413" style="stroke: #1963A0; stroke-width: 1.75;"/><text fill="#000000" font-family="sans-serif" font-size="19.25" lengthAdjust="spacingAndGlyphs" textLength="336" x="404.25" y="988.5518">redisCacheManagerBuilderCustomizer()</text><!--MD5=[5c9b3c1d96bf9629e8e233ea0eaecea3]
class tech.eportfolio.server.config.SecurityConfig--><rect fill="#FEFECE" filter="url(#fzh5c361ofjny)" height="189.1606" id="tech.eportfolio.server.config.SecurityConfig" style="stroke: #A80036; stroke-width: 2.625;" width="490" x="397.25" y="430.7905"/><ellipse cx="565.6875" cy="458.7905" fill="#ADD1B2" rx="19.25" ry="19.25" style="stroke: #A80036; stroke-width: 1.75;"/><path d="M565.1406,469.2905 Q561.75,469.2905 559.7813,466.8022 Q557.8125,464.2866 557.8125,459.1187 Q557.8125,454.7437 559.8906,451.7905 Q561.9688,448.8374 565.5781,448.8374 Q566.3711,448.8374 567.1367,448.8374 Q567.9023,448.8374 568.4492,448.8374 Q568.8867,448.8374 569.1602,448.8374 Q569.4609,448.8374 570.1719,448.8374 L571.4023,455.2905 L569.543,455.2905 Q568.7773,453.3765 567.7656,452.5835 Q566.7813,451.7905 565.168,451.7905 Q563.1445,451.7905 561.9414,453.8687 Q560.7656,455.9194 560.7656,459.1187 Q560.7656,462.646 561.668,464.5054 Q562.5977,466.3374 565.0586,466.3374 Q566.6719,466.3374 567.793,465.353 Q568.9414,464.3413 569.543,461.9077 L571.3477,462.8101 Q570.6641,465.8726 569.0234,467.5952 Q567.3828,469.2905 565.1406,469.2905 Z "/><text fill="#000000" font-family="sans-serif" font-size="21" lengthAdjust="spacingAndGlyphs" textLength="138.25" x="601.5625" y="468.5164">SecurityConfig</text><line style="stroke: #A80036; stroke-width: 2.625;" x1="399" x2="885.5" y1="486.7905" y2="486.7905"/><rect fill="none" height="10.5" style="stroke: #C82930; stroke-width: 1.75;" width="10.5" x="411.25" y="500.7905"/><text fill="#000000" font-family="sans-serif" font-size="19.25" lengthAdjust="spacingAndGlyphs" textLength="444.5" x="432.25" y="515.851">bCryptPasswordEncoder : BCryptPasswordEncoder</text><line style="stroke: #A80036; stroke-width: 2.625;" x1="399" x2="885.5" y1="527.0807" y2="527.0807"/><ellipse cx="416.5" cy="546.3307" fill="#84BE84" rx="5.25" ry="5.25" style="stroke: #038048; stroke-width: 1.75;"/><text fill="#000000" font-family="sans-serif" font-size="19.25" lengthAdjust="spacingAndGlyphs" textLength="204.75" x="432.25" y="556.1411">authenticationManager()</text><ellipse cx="416.5" cy="572.6208" fill="#84BE84" rx="5.25" ry="5.25" style="stroke: #038048; stroke-width: 1.75;"/><text fill="#000000" font-family="sans-serif" font-size="19.25" lengthAdjust="spacingAndGlyphs" textLength="94.5" x="432.25" y="582.4313">configure()</text><polygon fill="#FFFF44" points="416.5,590.161,423.5,597.161,416.5,604.161,409.5,597.161" style="stroke: #B38D22; stroke-width: 1.75;"/><text fill="#000000" font-family="sans-serif" font-size="19.25" lengthAdjust="spacingAndGlyphs" textLength="94.5" x="432.25" y="608.7214">configure()</text><!--MD5=[5d016f824377a6311fda7dd9a1a55ed6]
class tech.eportfolio.server.config.SpringFoxConfig--><rect fill="#FEFECE" filter="url(#fzh5c361ofjny)" height="162.8705" id="tech.eportfolio.server.config.SpringFoxConfig" style="stroke: #A80036; stroke-width: 2.625;" width="215.25" x="812.875" y="797.4155"/><ellipse cx="839.125" cy="825.4155" fill="#ADD1B2" rx="19.25" ry="19.25" style="stroke: #A80036; stroke-width: 1.75;"/><path d="M838.5781,835.9155 Q835.1875,835.9155 833.2188,833.4272 Q831.25,830.9116 831.25,825.7437 Q831.25,821.3687 833.3281,818.4155 Q835.4063,815.4624 839.0156,815.4624 Q839.8086,815.4624 840.5742,815.4624 Q841.3398,815.4624 841.8867,815.4624 Q842.3242,815.4624 842.5977,815.4624 Q842.8984,815.4624 843.6094,815.4624 L844.8398,821.9155 L842.9805,821.9155 Q842.2148,820.0015 841.2031,819.2085 Q840.2188,818.4155 838.6055,818.4155 Q836.582,818.4155 835.3789,820.4937 Q834.2031,822.5444 834.2031,825.7437 Q834.2031,829.271 835.1055,831.1304 Q836.0352,832.9624 838.4961,832.9624 Q840.1094,832.9624 841.2305,831.978 Q842.3789,830.9663 842.9805,828.5327 L844.7852,829.4351 Q844.1016,832.4976 842.4609,834.2202 Q840.8203,835.9155 838.5781,835.9155 Z "/><text fill="#000000" font-family="sans-serif" font-size="21" lengthAdjust="spacingAndGlyphs" textLength="159.25" x="863.625" y="835.1414">SpringFoxConfig</text><line style="stroke: #A80036; stroke-width: 2.625;" x1="814.625" x2="1026.375" y1="853.4155" y2="853.4155"/><line style="stroke: #A80036; stroke-width: 2.625;" x1="814.625" x2="1026.375" y1="867.4155" y2="867.4155"/><ellipse cx="832.125" cy="886.6655" fill="#84BE84" rx="5.25" ry="5.25" style="stroke: #038048; stroke-width: 1.75;"/><text fill="#000000" font-family="sans-serif" font-size="19.25" lengthAdjust="spacingAndGlyphs" textLength="96.25" x="847.875" y="896.476">apiDocket()</text><rect fill="#F24D5C" height="10.5" style="stroke: #C82930; stroke-width: 1.75;" width="10.5" x="826.875" y="907.7057"/><text fill="#000000" font-family="sans-serif" font-size="19.25" lengthAdjust="spacingAndGlyphs" textLength="70" x="847.875" y="922.7661">apiInfo()</text><rect fill="#F24D5C" height="10.5" style="stroke: #C82930; stroke-width: 1.75;" width="10.5" x="826.875" y="933.9958"/><text fill="#000000" font-family="sans-serif" font-size="19.25" lengthAdjust="spacingAndGlyphs" textLength="71.75" x="847.875" y="949.0563">apiKey()</text><!--MD5=[4894aeac3c8a75f2b018033d5267af4a]
class tech.eportfolio.server.config.WebConfig--><rect fill="#FEFECE" filter="url(#fzh5c361ofjny)" height="136.5803" id="tech.eportfolio.server.config.WebConfig" style="stroke: #A80036; stroke-width: 2.625;" width="211.75" x="1607.375" y="457.0405"/><ellipse cx="1655.675" cy="485.0405" fill="#ADD1B2" rx="19.25" ry="19.25" style="stroke: #A80036; stroke-width: 1.75;"/><path d="M1655.1281,495.5405 Q1651.7375,495.5405 1649.7688,493.0522 Q1647.8,490.5366 1647.8,485.3687 Q1647.8,480.9937 1649.8781,478.0405 Q1651.9563,475.0874 1655.5656,475.0874 Q1656.3586,475.0874 1657.1242,475.0874 Q1657.8898,475.0874 1658.4367,475.0874 Q1658.8742,475.0874 1659.1477,475.0874 Q1659.4484,475.0874 1660.1594,475.0874 L1661.3898,481.5405 L1659.5305,481.5405 Q1658.7648,479.6265 1657.7531,478.8335 Q1656.7688,478.0405 1655.1555,478.0405 Q1653.132,478.0405 1651.9289,480.1187 Q1650.7531,482.1694 1650.7531,485.3687 Q1650.7531,488.896 1651.6555,490.7554 Q1652.5852,492.5874 1655.0461,492.5874 Q1656.6594,492.5874 1657.7805,491.603 Q1658.9289,490.5913 1659.5305,488.1577 L1661.3352,489.0601 Q1660.6516,492.1226 1659.0109,493.8452 Q1657.3703,495.5405 1655.1281,495.5405 Z "/><text fill="#000000" font-family="sans-serif" font-size="21" lengthAdjust="spacingAndGlyphs" textLength="106.75" x="1685.075" y="494.7664">WebConfig</text><line style="stroke: #A80036; stroke-width: 2.625;" x1="1609.125" x2="1817.375" y1="513.0405" y2="513.0405"/><line style="stroke: #A80036; stroke-width: 2.625;" x1="1609.125" x2="1817.375" y1="527.0405" y2="527.0405"/><ellipse cx="1626.625" cy="546.2905" fill="#84BE84" rx="5.25" ry="5.25" style="stroke: #038048; stroke-width: 1.75;"/><text fill="#000000" font-family="sans-serif" font-size="19.25" lengthAdjust="spacingAndGlyphs" textLength="166.25" x="1642.375" y="556.101">addCorsMappings()</text><ellipse cx="1626.625" cy="572.5807" fill="#84BE84" rx="5.25" ry="5.25" style="stroke: #038048; stroke-width: 1.75;"/><text fill="#000000" font-family="sans-serif" font-size="19.25" lengthAdjust="spacingAndGlyphs" textLength="147" x="1642.375" y="582.3911">addInterceptors()</text><!--MD5=[9680484a63875b7e420b5b2819522cbc]
class org.springframework.security.config.annotation.web.configuration.WebSecurityConfigurerAdapter--><rect fill="#FEFECE" filter="url(#fzh5c361ofjny)" height="84" id="org.springframework.security.config.annotation.web.configuration.WebSecurityConfigurerAdapter" style="stroke: #A80036; stroke-width: 2.625;" width="350" x="467.25" y="194.5405"/><ellipse cx="493.5" cy="222.5405" fill="#ADD1B2" rx="19.25" ry="19.25" style="stroke: #A80036; stroke-width: 1.75;"/><path d="M492.9531,233.0405 Q489.5625,233.0405 487.5938,230.5522 Q485.625,228.0366 485.625,222.8687 Q485.625,218.4937 487.7031,215.5405 Q489.7813,212.5874 493.3906,212.5874 Q494.1836,212.5874 494.9492,212.5874 Q495.7148,212.5874 496.2617,212.5874 Q496.6992,212.5874 496.9727,212.5874 Q497.2734,212.5874 497.9844,212.5874 L499.2148,219.0405 L497.3555,219.0405 Q496.5898,217.1265 495.5781,216.3335 Q494.5938,215.5405 492.9805,215.5405 Q490.957,215.5405 489.7539,217.6187 Q488.5781,219.6694 488.5781,222.8687 Q488.5781,226.396 489.4805,228.2554 Q490.4102,230.0874 492.8711,230.0874 Q494.4844,230.0874 495.6055,229.103 Q496.7539,228.0913 497.3555,225.6577 L499.1602,226.5601 Q498.4766,229.6226 496.8359,231.3452 Q495.1953,233.0405 492.9531,233.0405 Z "/><text fill="#000000" font-family="sans-serif" font-size="21" lengthAdjust="spacingAndGlyphs" textLength="294" x="518" y="232.2664">WebSecurityConfigurerAdapter</text><line style="stroke: #A80036; stroke-width: 2.625;" x1="469" x2="815.5" y1="250.5405" y2="250.5405"/><line style="stroke: #A80036; stroke-width: 2.625;" x1="469" x2="815.5" y1="264.5405" y2="264.5405"/><!--MD5=[318ec2baa612d91d425277c1cf2e1e57]
class tech.eportfolio.server.security.JwtAccessDeniedHandler--><rect fill="#FEFECE" filter="url(#fzh5c361ofjny)" height="84" id="tech.eportfolio.server.security.JwtAccessDeniedHandler" style="stroke: #A80036; stroke-width: 2.625;" width="304.5" x="1918" y="836.7905"/><ellipse cx="1944.25" cy="864.7905" fill="#ADD1B2" rx="19.25" ry="19.25" style="stroke: #A80036; stroke-width: 1.75;"/><path d="M1943.7031,875.2905 Q1940.3125,875.2905 1938.3438,872.8022 Q1936.375,870.2866 1936.375,865.1187 Q1936.375,860.7437 1938.4531,857.7905 Q1940.5313,854.8374 1944.1406,854.8374 Q1944.9336,854.8374 1945.6992,854.8374 Q1946.4648,854.8374 1947.0117,854.8374 Q1947.4492,854.8374 1947.7227,854.8374 Q1948.0234,854.8374 1948.7344,854.8374 L1949.9648,861.2905 L1948.1055,861.2905 Q1947.3398,859.3765 1946.3281,858.5835 Q1945.3438,857.7905 1943.7305,857.7905 Q1941.707,857.7905 1940.5039,859.8687 Q1939.3281,861.9194 1939.3281,865.1187 Q1939.3281,868.646 1940.2305,870.5054 Q1941.1602,872.3374 1943.6211,872.3374 Q1945.2344,872.3374 1946.3555,871.353 Q1947.5039,870.3413 1948.1055,867.9077 L1949.9102,868.8101 Q1949.2266,871.8726 1947.5859,873.5952 Q1945.9453,875.2905 1943.7031,875.2905 Z "/><text fill="#000000" font-family="sans-serif" font-size="21" lengthAdjust="spacingAndGlyphs" textLength="248.5" x="1968.75" y="874.5164">JwtAccessDeniedHandler</text><line style="stroke: #A80036; stroke-width: 2.625;" x1="1919.75" x2="2220.75" y1="892.7905" y2="892.7905"/><line style="stroke: #A80036; stroke-width: 2.625;" x1="1919.75" x2="2220.75" y1="906.7905" y2="906.7905"/><!--MD5=[2f269a7db67750bc0331c913fd08df1c]
class tech.eportfolio.server.security.JWTAuthenticationEntryPoint--><rect fill="#FEFECE" filter="url(#fzh5c361ofjny)" height="84" id="tech.eportfolio.server.security.JWTAuthenticationEntryPoint" style="stroke: #A80036; stroke-width: 2.625;" width="329" x="2283.75" y="836.7905"/><ellipse cx="2310" cy="864.7905" fill="#ADD1B2" rx="19.25" ry="19.25" style="stroke: #A80036; stroke-width: 1.75;"/><path d="M2309.4531,875.2905 Q2306.0625,875.2905 2304.0938,872.8022 Q2302.125,870.2866 2302.125,865.1187 Q2302.125,860.7437 2304.2031,857.7905 Q2306.2813,854.8374 2309.8906,854.8374 Q2310.6836,854.8374 2311.4492,854.8374 Q2312.2148,854.8374 2312.7617,854.8374 Q2313.1992,854.8374 2313.4727,854.8374 Q2313.7734,854.8374 2314.4844,854.8374 L2315.7148,861.2905 L2313.8555,861.2905 Q2313.0898,859.3765 2312.0781,858.5835 Q2311.0938,857.7905 2309.4805,857.7905 Q2307.457,857.7905 2306.2539,859.8687 Q2305.0781,861.9194 2305.0781,865.1187 Q2305.0781,868.646 2305.9805,870.5054 Q2306.9102,872.3374 2309.3711,872.3374 Q2310.9844,872.3374 2312.1055,871.353 Q2313.2539,870.3413 2313.8555,867.9077 L2315.6602,868.8101 Q2314.9766,871.8726 2313.3359,873.5952 Q2311.6953,875.2905 2309.4531,875.2905 Z "/><text fill="#000000" font-family="sans-serif" font-size="21" lengthAdjust="spacingAndGlyphs" textLength="273" x="2334.5" y="874.5164">JWTAuthenticationEntryPoint</text><line style="stroke: #A80036; stroke-width: 2.625;" x1="2285.5" x2="2611" y1="892.7905" y2="892.7905"/><line style="stroke: #A80036; stroke-width: 2.625;" x1="2285.5" x2="2611" y1="906.7905" y2="906.7905"/><!--MD5=[a55cc65d79aa09129485a79fa86ba457]
class tech.eportfolio.server.security.JWTAuthorizationFilter--><rect fill="#FEFECE" filter="url(#fzh5c361ofjny)" height="84" id="tech.eportfolio.server.security.JWTAuthorizationFilter" style="stroke: #A80036; stroke-width: 2.625;" width="267.75" x="2674.875" y="836.7905"/><ellipse cx="2701.125" cy="864.7905" fill="#ADD1B2" rx="19.25" ry="19.25" style="stroke: #A80036; stroke-width: 1.75;"/><path d="M2700.5781,875.2905 Q2697.1875,875.2905 2695.2188,872.8022 Q2693.25,870.2866 2693.25,865.1187 Q2693.25,860.7437 2695.3281,857.7905 Q2697.4063,854.8374 2701.0156,854.8374 Q2701.8086,854.8374 2702.5742,854.8374 Q2703.3398,854.8374 2703.8867,854.8374 Q2704.3242,854.8374 2704.5977,854.8374 Q2704.8984,854.8374 2705.6094,854.8374 L2706.8398,861.2905 L2704.9805,861.2905 Q2704.2148,859.3765 2703.2031,858.5835 Q2702.2188,857.7905 2700.6055,857.7905 Q2698.582,857.7905 2697.3789,859.8687 Q2696.2031,861.9194 2696.2031,865.1187 Q2696.2031,868.646 2697.1055,870.5054 Q2698.0352,872.3374 2700.4961,872.3374 Q2702.1094,872.3374 2703.2305,871.353 Q2704.3789,870.3413 2704.9805,867.9077 L2706.7852,868.8101 Q2706.1016,871.8726 2704.4609,873.5952 Q2702.8203,875.2905 2700.5781,875.2905 Z "/><text fill="#000000" font-family="sans-serif" font-size="21" lengthAdjust="spacingAndGlyphs" textLength="211.75" x="2725.625" y="874.5164">JWTAuthorizationFilter</text><line style="stroke: #A80036; stroke-width: 2.625;" x1="2676.625" x2="2940.875" y1="892.7905" y2="892.7905"/><line style="stroke: #A80036; stroke-width: 2.625;" x1="2676.625" x2="2940.875" y1="906.7905" y2="906.7905"/><!--MD5=[b38f3cac067c581f96fa8e6e933d52bc]
class tech.eportfolio.server.service.impl.UserServiceImpl--><rect fill="#FEFECE" filter="url(#fzh5c361ofjny)" height="84" id="tech.eportfolio.server.service.impl.UserServiceImpl" style="stroke: #A80036; stroke-width: 2.625;" width="215.25" x="3042.375" y="836.7905"/><ellipse cx="3068.625" cy="864.7905" fill="#ADD1B2" rx="19.25" ry="19.25" style="stroke: #A80036; stroke-width: 1.75;"/><path d="M3068.0781,875.2905 Q3064.6875,875.2905 3062.7188,872.8022 Q3060.75,870.2866 3060.75,865.1187 Q3060.75,860.7437 3062.8281,857.7905 Q3064.9063,854.8374 3068.5156,854.8374 Q3069.3086,854.8374 3070.0742,854.8374 Q3070.8398,854.8374 3071.3867,854.8374 Q3071.8242,854.8374 3072.0977,854.8374 Q3072.3984,854.8374 3073.1094,854.8374 L3074.3398,861.2905 L3072.4805,861.2905 Q3071.7148,859.3765 3070.7031,858.5835 Q3069.7188,857.7905 3068.1055,857.7905 Q3066.082,857.7905 3064.8789,859.8687 Q3063.7031,861.9194 3063.7031,865.1187 Q3063.7031,868.646 3064.6055,870.5054 Q3065.5352,872.3374 3067.9961,872.3374 Q3069.6094,872.3374 3070.7305,871.353 Q3071.8789,870.3413 3072.4805,867.9077 L3074.2852,868.8101 Q3073.6016,871.8726 3071.9609,873.5952 Q3070.3203,875.2905 3068.0781,875.2905 Z "/><text fill="#000000" font-family="sans-serif" font-size="21" lengthAdjust="spacingAndGlyphs" textLength="159.25" x="3093.125" y="874.5164">UserServiceImpl</text><line style="stroke: #A80036; stroke-width: 2.625;" x1="3044.125" x2="3255.875" y1="892.7905" y2="892.7905"/><line style="stroke: #A80036; stroke-width: 2.625;" x1="3044.125" x2="3255.875" y1="906.7905" y2="906.7905"/><!--MD5=[ed2d0e174e8a751013d52557297a565b]
class org.springframework.web.servlet.config.annotation.WebMvcConfigurer--><rect fill="#FEFECE" filter="url(#fzh5c361ofjny)" height="84" id="org.springframework.web.servlet.config.annotation.WebMvcConfigurer" style="stroke: #A80036; stroke-width: 2.625;" width="236.25" x="1595.125" y="194.5405"/><ellipse cx="1621.375" cy="222.5405" fill="#ADD1B2" rx="19.25" ry="19.25" style="stroke: #A80036; stroke-width: 1.75;"/><path d="M1620.8281,233.0405 Q1617.4375,233.0405 1615.4688,230.5522 Q1613.5,228.0366 1613.5,222.8687 Q1613.5,218.4937 1615.5781,215.5405 Q1617.6563,212.5874 1621.2656,212.5874 Q1622.0586,212.5874 1622.8242,212.5874 Q1623.5898,212.5874 1624.1367,212.5874 Q1624.5742,212.5874 1624.8477,212.5874 Q1625.1484,212.5874 1625.8594,212.5874 L1627.0898,219.0405 L1625.2305,219.0405 Q1624.4648,217.1265 1623.4531,216.3335 Q1622.4688,215.5405 1620.8555,215.5405 Q1618.832,215.5405 1617.6289,217.6187 Q1616.4531,219.6694 1616.4531,222.8687 Q1616.4531,226.396 1617.3555,228.2554 Q1618.2852,230.0874 1620.7461,230.0874 Q1622.3594,230.0874 1623.4805,229.103 Q1624.6289,228.0913 1625.2305,225.6577 L1627.0352,226.5601 Q1626.3516,229.6226 1624.7109,231.3452 Q1623.0703,233.0405 1620.8281,233.0405 Z "/><text fill="#000000" font-family="sans-serif" font-size="21" lengthAdjust="spacingAndGlyphs" textLength="180.25" x="1645.875" y="232.2664">WebMvcConfigurer</text><line style="stroke: #A80036; stroke-width: 2.625;" x1="1596.875" x2="1829.625" y1="250.5405" y2="250.5405"/><line style="stroke: #A80036; stroke-width: 2.625;" x1="1596.875" x2="1829.625" y1="264.5405" y2="264.5405"/><!--MD5=[a8aef87a6c640fe14799accf078ecb6f]
reverse link org.springframework.security.config.annotation.web.configuration.WebSecurityConfigurerAdapter to tech.eportfolio.server.config.SecurityConfig--><path d="M642.25,313.9308 C642.25,349.713 642.25,392.7735 642.25,430.5333 " fill="none" id="org.springframework.security.config.annotation.web.configuration.WebSecurityConfigurerAdapter&lt;-tech.eportfolio.server.config.SecurityConfig" style="stroke: #A80036; stroke-width: 1.75;"/><polygon fill="none" points="630,313.5545,642.25,278.5545,654.5,313.5545,630,313.5545" style="stroke: #A80036; stroke-width: 1.75;"/><!--MD5=[aa1bf26e4087d4f686e1198de1513934]
reverse link tech.eportfolio.server.config.SecurityConfig to tech.eportfolio.server.security.JwtAccessDeniedHandler--><path d="M909.5048,617.5103 C912.5988,618.289 915.6823,619.0485 918.75,619.7905 C1165.738,679.4743 1232.553,668.941 1484,705.5405 C1645.6388,729.0675 1692.852,705.201 1848,756.2905 C1906.1875,775.4495 1966.9475,809.585 2010.2075,836.6838 " fill="none" id="tech.eportfolio.server.config.SecurityConfig&lt;-tech.eportfolio.server.security.JwtAccessDeniedHandler" style="stroke: #A80036; stroke-width: 1.75;"/><polygon fill="#FFFFFF" points="887.3463,611.7073,895.7307,621.1387,907.6614,617.0266,899.2769,607.5953,887.3463,611.7073" style="stroke: #A80036; stroke-width: 1.75;"/><text fill="#000000" font-family="sans-serif" font-size="22.75" lengthAdjust="spacingAndGlyphs" textLength="252" x="1485.75" y="700.1119">jwtAccessDeniedHandler</text><!--MD5=[beac1eb5d225b7bbd2d2966e965e98c6]
reverse link tech.eportfolio.server.config.SecurityConfig to tech.eportfolio.server.security.JWTAuthenticationEntryPoint--><path d="M910.1243,618.0423 C913.01,618.646 915.8853,619.2288 918.75,619.7905 C1504.1548,734.4978 1695.7238,546.091 2254,756.2905 C2305.66,775.74 2358.475,809.6673 2395.9775,836.6155 " fill="none" id="tech.eportfolio.server.config.SecurityConfig&lt;-tech.eportfolio.server.security.JWTAuthenticationEntryPoint" style="stroke: #A80036; stroke-width: 1.75;"/><polygon fill="#FFFFFF" points="887.8555,613.0338,896.5643,622.1665,908.3441,617.6401,899.6352,608.5074,887.8555,613.0338" style="stroke: #A80036; stroke-width: 1.75;"/><text fill="#000000" font-family="sans-serif" font-size="22.75" lengthAdjust="spacingAndGlyphs" textLength="280" x="2098.25" y="700.1119">jwtAuthenticationEntryPoint</text><!--MD5=[f4c03bbb9a49720553b6a82ee0d7154d]
reverse link tech.eportfolio.server.config.SecurityConfig to tech.eportfolio.server.security.JWTAuthorizationFilter--><path d="M910.1032,618.156 C912.9943,618.7248 915.8783,619.269 918.75,619.7905 C1564.2778,736.9968 1748.4845,555.0195 2394,672.2905 C2509.43,693.2608 2540.1075,702.268 2644.25,756.2905 C2686.705,778.3143 2730.1225,810.6893 2761.6925,836.374 " fill="none" id="tech.eportfolio.server.config.SecurityConfig&lt;-tech.eportfolio.server.security.JWTAuthorizationFilter" style="stroke: #A80036; stroke-width: 1.75;"/><polygon fill="#FFFFFF" points="887.7873,613.3943,896.5952,622.4314,908.3248,617.7769,899.5169,608.7397,887.7873,613.3943" style="stroke: #A80036; stroke-width: 1.75;"/><text fill="#000000" font-family="sans-serif" font-size="22.75" lengthAdjust="spacingAndGlyphs" textLength="211.75" x="2532.25" y="700.1119">jwtAuthorizationFilter</text><!--MD5=[c6fee404e4b10410279addc9ea62fc1f]
reverse link tech.eportfolio.server.config.SecurityConfig to tech.eportfolio.server.service.impl.UserServiceImpl--><path d="M910.098,618.1858 C912.9907,618.744 915.8765,619.2795 918.75,619.7905 C1321.6998,691.4845 2358.8775,589.7448 2759.75,672.2905 C2858.9225,692.7113 2881.9875,708.981 2971.5,756.2905 C3015.495,779.5428 3061.9575,811.2265 3096.45,836.304 " fill="none" id="tech.eportfolio.server.config.SecurityConfig&lt;-tech.eportfolio.server.service.impl.UserServiceImpl" style="stroke: #A80036; stroke-width: 1.75;"/><polygon fill="#FFFFFF" points="887.7715,613.4853,896.6039,622.4985,908.3209,617.8121,899.4885,608.7989,887.7715,613.4853" style="stroke: #A80036; stroke-width: 1.75;"/><text fill="#000000" font-family="sans-serif" font-size="22.75" lengthAdjust="spacingAndGlyphs" textLength="187.25" x="2870" y="700.1119">userDetailsService</text><!--MD5=[39b06a91ed812ca9faed076133ba5a9e]
reverse link org.springframework.web.servlet.config.annotation.WebMvcConfigurer to tech.eportfolio.server.config.WebConfig--><path d="M1713.25,314.0428 C1713.25,358.372 1713.25,413.84 1713.25,456.5645 " fill="none" id="org.springframework.web.servlet.config.annotation.WebMvcConfigurer&lt;-tech.eportfolio.server.config.WebConfig" style="stroke: #A80036; stroke-width: 1.75; stroke-dasharray: 7.0,7.0;"/><polygon fill="none" points="1701,313.5545,1713.25,278.5545,1725.5,313.5545,1701,313.5545" style="stroke: #A80036; stroke-width: 1.75;"/><!--MD5=[55738db78b45b3da7eb6e131e6759453]
link tech.eportfolio.server.config.AzureStorageConfig to tech.eportfolio.server.config.MailConfig--><!--MD5=[e2247c3906aa91efa49dfd8ed4d2360a]
link tech.eportfolio.server.config.MailConfig to tech.eportfolio.server.config.QuartzJobConfig--><!--MD5=[5b8936e3d2faf8ef934e1a9cf4e5a0e3]
link tech.eportfolio.server.config.AzureStorageConfig to tech.eportfolio.server.config.RabbitMQConfig--><!--MD5=[af0fc3b2d0915ddfc6f26ac8014b65ac]
link tech.eportfolio.server.config.RabbitMQConfig to tech.eportfolio.server.config.RedisConfig--><!--MD5=[81dc3074f4ca06ff10840c224d6906b5]
link tech.eportfolio.server.config.RedisConfig to tech.eportfolio.server.config.SpringFoxConfig--><!--MD5=[bfe2966020e2d2c9041e1e4e53dda68c]
@startuml

title __CONFIG's Class Diagram__\n
      class tech.eportfolio.server.config.AzureStorageConfig {
          - environment : Environment
          + cloudBlobClient()
          + testBlobContainer()
      }

      class tech.eportfolio.server.config.MailConfig {
          + getJavaMailSender()
      }

      class tech.eportfolio.server.config.QuartzJobConfig {
          + deleteUserContainerJobDetails()
          + jobATrigger()
          + mockContentJob()
          + mockContentJobTrigger()
      }

      class tech.eportfolio.server.config.RabbitMQConfig {
          + amqpAdmin()
          + converter()
          + rabbitTemplate()
      }

      class tech.eportfolio.server.config.RedisConfig {
          - logger : Logger
          - password : String
          - redisHostName : String
          - redisPort : int
          ~ jedisConnectionFactory()
          ~ redisCacheManagerBuilderCustomizer()
      }

      class tech.eportfolio.server.config.SecurityConfig {
          - bCryptPasswordEncoder : BCryptPasswordEncoder
          + authenticationManager()
          + configure()
          # configure()
      }

      class tech.eportfolio.server.config.SpringFoxConfig {
          + apiDocket()
          - apiInfo()
          - apiKey()
      }

      class tech.eportfolio.server.config.WebConfig {
          + addCorsMappings()
          + addInterceptors()
      }

  

  tech.eportfolio.server.config.SecurityConfig -up-|> org.springframework.security.config.annotation.web.configuration.WebSecurityConfigurerAdapter
  tech.eportfolio.server.config.SecurityConfig o- - tech.eportfolio.server.security.JwtAccessDeniedHandler : jwtAccessDeniedHandler
  tech.eportfolio.server.config.SecurityConfig o- - tech.eportfolio.server.security.JWTAuthenticationEntryPoint : jwtAuthenticationEntryPoint
  tech.eportfolio.server.config.SecurityConfig o- - tech.eportfolio.server.security.JWTAuthorizationFilter : jwtAuthorizationFilter
  tech.eportfolio.server.config.SecurityConfig o- - tech.eportfolio.server.service.impl.UserServiceImpl : userDetailsService
  tech.eportfolio.server.config.WebConfig .up.|> org.springframework.web.servlet.config.annotation.WebMvcConfigurer


@enduml

PlantUML version 1.2020.09(Sun May 10 20:51:06 AEST 2020)
(GPL source distribution)
Java Runtime: OpenJDK Runtime Environment
JVM: OpenJDK 64-Bit Server VM
Java Version: 11.0.8+10-b944.31
Operating System: Windows 10
Default Encoding: GBK
Language: en
Country: AU
--></g></svg>