<?xml version="1.0" encoding="UTF-8" standalone="no"?><svg xmlns="http://www.w3.org/2000/svg" xmlns:xlink="http://www.w3.org/1999/xlink" contentScriptType="application/ecmascript" contentStyleType="text/css" height="1151.5px" preserveAspectRatio="none" style="width:1988px;height:1151px;" version="1.1" viewBox="0 0 1988 1151" width="1988px" zoomAndPan="magnify"><defs><filter height="300%" id="f6mjtnbvbttzf" width="300%" x="-1" y="-1"><feGaussianBlur result="blurOut" stdDeviation="3.5"/><feColorMatrix in="blurOut" result="blurOut2" type="matrix" values="0 0 0 0 0 0 0 0 0 0 0 0 0 0 0 0 0 0 .4 0"/><feOffset dx="7.0" dy="7.0" in="blurOut2" result="blurOut3"/><feBlend in="SourceGraphic" in2="blurOut3" mode="normal"/></filter></defs><g><text fill="#000000" font-family="sans-serif" font-size="31.5" lengthAdjust="spacingAndGlyphs" text-decoration="underline" textLength="364" x="822.5" y="36.0989">Repository Class Diagram</text><text fill="#000000" font-family="sans-serif" font-size="31.5" lengthAdjust="spacingAndGlyphs" textLength="0" x="1008.875" y="79.1191"/><!--MD5=[c207bb9e595d78a493be8c6f932c04b5]
cluster tech.eportfolio.server.repository--><polygon fill="#FFFFFF" filter="url(#f6mjtnbvbttzf)" points="38.5,128.0405,453.25,128.0405,465.5,172.0007,1949.5,172.0007,1949.5,1130.7905,38.5,1130.7905,38.5,128.0405" style="stroke: #000000; stroke-width: 2.625;"/><line style="stroke: #000000; stroke-width: 2.625;" x1="38.5" x2="465.5" y1="172.0007" y2="172.0007"/><text fill="#000000" font-family="sans-serif" font-size="24.5" font-weight="bold" lengthAdjust="spacingAndGlyphs" textLength="404.25" x="45.5" y="159.6174">tech.eportfolio.server.repository</text><!--MD5=[11291318000f19f4133a3d5a58849d07]
class tech.eportfolio.server.repository.ActivityRepository--><rect fill="#FEFECE" filter="url(#f6mjtnbvbttzf)" height="110.2902" id="tech.eportfolio.server.repository.ActivityRepository" style="stroke: #A80036; stroke-width: 2.625;" width="409.5" x="66.5" y="247.0405"/><ellipse cx="178.9375" cy="275.0405" fill="#B4A7E5" rx="19.25" ry="19.25" style="stroke: #A80036; stroke-width: 1.75;"/><path d="M173.4688,268.0405 L173.4688,265.0874 L183.8594,265.0874 L183.8594,268.0405 L180.5781,268.0405 Q180.3047,268.0405 180.2227,268.0952 Q180.1406,268.1499 180.1406,268.2319 L180.1406,282.396 Q180.1406,282.478 180.2227,282.5327 Q180.3047,282.5874 180.5781,282.5874 L183.8594,282.5874 L183.8594,285.5405 L173.4688,285.5405 L173.4688,282.5874 L176.75,282.5874 Q177.1055,282.5874 177.1328,282.5601 Q177.1875,282.5327 177.1875,282.396 L177.1875,268.2319 Q177.1875,268.0952 177.1328,268.0679 Q177.1055,268.0405 176.75,268.0405 L173.4688,268.0405 Z "/><text fill="#000000" font-family="sans-serif" font-size="21" font-style="italic" lengthAdjust="spacingAndGlyphs" textLength="169.75" x="214.8125" y="284.7664">ActivityRepository</text><line style="stroke: #A80036; stroke-width: 2.625;" x1="68.25" x2="474.25" y1="303.0405" y2="303.0405"/><line style="stroke: #A80036; stroke-width: 2.625;" x1="68.25" x2="474.25" y1="317.0405" y2="317.0405"/><ellipse cx="85.75" cy="336.2905" fill="#84BE84" rx="5.25" ry="5.25" style="stroke: #038048; stroke-width: 1.75;"/><text fill="#000000" font-family="sans-serif" font-size="19.25" font-style="italic" lengthAdjust="spacingAndGlyphs" textLength="364" x="101.5" y="346.101">findByIdNotInAndActivityTypeAndDeleted()</text><!--MD5=[aa8c7ec8bd0b3ea6bc27f6a8f5289aea]
class tech.eportfolio.server.repository.FeedHistoryRepository--><rect fill="#FEFECE" filter="url(#f6mjtnbvbttzf)" height="110.2902" id="tech.eportfolio.server.repository.FeedHistoryRepository" style="stroke: #A80036; stroke-width: 2.625;" width="274.75" x="538.125" y="247.0405"/><ellipse cx="564.375" cy="275.0405" fill="#B4A7E5" rx="19.25" ry="19.25" style="stroke: #A80036; stroke-width: 1.75;"/><path d="M558.9063,268.0405 L558.9063,265.0874 L569.2969,265.0874 L569.2969,268.0405 L566.0156,268.0405 Q565.7422,268.0405 565.6602,268.0952 Q565.5781,268.1499 565.5781,268.2319 L565.5781,282.396 Q565.5781,282.478 565.6602,282.5327 Q565.7422,282.5874 566.0156,282.5874 L569.2969,282.5874 L569.2969,285.5405 L558.9063,285.5405 L558.9063,282.5874 L562.1875,282.5874 Q562.543,282.5874 562.5703,282.5601 Q562.625,282.5327 562.625,282.396 L562.625,268.2319 Q562.625,268.0952 562.5703,268.0679 Q562.543,268.0405 562.1875,268.0405 L558.9063,268.0405 Z "/><text fill="#000000" font-family="sans-serif" font-size="21" font-style="italic" lengthAdjust="spacingAndGlyphs" textLength="218.75" x="588.875" y="284.7664">FeedHistoryRepository</text><line style="stroke: #A80036; stroke-width: 2.625;" x1="539.875" x2="811.125" y1="303.0405" y2="303.0405"/><line style="stroke: #A80036; stroke-width: 2.625;" x1="539.875" x2="811.125" y1="317.0405" y2="317.0405"/><ellipse cx="557.375" cy="336.2905" fill="#84BE84" rx="5.25" ry="5.25" style="stroke: #038048; stroke-width: 1.75;"/><text fill="#000000" font-family="sans-serif" font-size="19.25" font-style="italic" lengthAdjust="spacingAndGlyphs" textLength="227.5" x="573.125" y="346.101">findFeedHistoryByUserId()</text><!--MD5=[5ddeb643b4ef7e9b67f28d8e92dbf168]
class tech.eportfolio.server.repository.PortfolioRepository--><rect fill="#FEFECE" filter="url(#f6mjtnbvbttzf)" height="162.8705" id="tech.eportfolio.server.repository.PortfolioRepository" style="stroke: #A80036; stroke-width: 2.625;" width="283.5" x="875" y="220.7905"/><ellipse cx="921.725" cy="248.7905" fill="#B4A7E5" rx="19.25" ry="19.25" style="stroke: #A80036; stroke-width: 1.75;"/><path d="M916.2563,241.7905 L916.2563,238.8374 L926.6469,238.8374 L926.6469,241.7905 L923.3656,241.7905 Q923.0922,241.7905 923.0102,241.8452 Q922.9281,241.8999 922.9281,241.9819 L922.9281,256.146 Q922.9281,256.228 923.0102,256.2827 Q923.0922,256.3374 923.3656,256.3374 L926.6469,256.3374 L926.6469,259.2905 L916.2563,259.2905 L916.2563,256.3374 L919.5375,256.3374 Q919.893,256.3374 919.9203,256.3101 Q919.975,256.2827 919.975,256.146 L919.975,241.9819 Q919.975,241.8452 919.9203,241.8179 Q919.893,241.7905 919.5375,241.7905 L916.2563,241.7905 Z "/><text fill="#000000" font-family="sans-serif" font-size="21" font-style="italic" lengthAdjust="spacingAndGlyphs" textLength="182" x="950.775" y="258.5164">PortfolioRepository</text><line style="stroke: #A80036; stroke-width: 2.625;" x1="876.75" x2="1156.75" y1="276.7905" y2="276.7905"/><line style="stroke: #A80036; stroke-width: 2.625;" x1="876.75" x2="1156.75" y1="290.7905" y2="290.7905"/><ellipse cx="894.25" cy="310.0405" fill="#84BE84" rx="5.25" ry="5.25" style="stroke: #038048; stroke-width: 1.75;"/><text fill="#000000" font-family="sans-serif" font-size="19.25" font-style="italic" lengthAdjust="spacingAndGlyphs" textLength="197.75" x="910" y="319.851">findByIdInAndDeleted()</text><ellipse cx="894.25" cy="336.3307" fill="#84BE84" rx="5.25" ry="5.25" style="stroke: #038048; stroke-width: 1.75;"/><text fill="#000000" font-family="sans-serif" font-size="19.25" font-style="italic" lengthAdjust="spacingAndGlyphs" textLength="238" x="910" y="346.1411">findByUserIdInAndDeleted()</text><ellipse cx="894.25" cy="362.6208" fill="#84BE84" rx="5.25" ry="5.25" style="stroke: #038048; stroke-width: 1.75;"/><text fill="#000000" font-family="sans-serif" font-size="19.25" font-style="italic" lengthAdjust="spacingAndGlyphs" textLength="154" x="910" y="372.4313">findByUsername()</text><!--MD5=[168654511b13c163604d15527c2ea64c]
class tech.eportfolio.server.repository.TagRepository--><rect fill="#FEFECE" filter="url(#f6mjtnbvbttzf)" height="215.4508" id="tech.eportfolio.server.repository.TagRepository" style="stroke: #A80036; stroke-width: 2.625;" width="278.25" x="1220.625" y="194.5405"/><ellipse cx="1283.8875" cy="222.5405" fill="#B4A7E5" rx="19.25" ry="19.25" style="stroke: #A80036; stroke-width: 1.75;"/><path d="M1278.4188,215.5405 L1278.4188,212.5874 L1288.8094,212.5874 L1288.8094,215.5405 L1285.5281,215.5405 Q1285.2547,215.5405 1285.1727,215.5952 Q1285.0906,215.6499 1285.0906,215.7319 L1285.0906,229.896 Q1285.0906,229.978 1285.1727,230.0327 Q1285.2547,230.0874 1285.5281,230.0874 L1288.8094,230.0874 L1288.8094,233.0405 L1278.4188,233.0405 L1278.4188,230.0874 L1281.7,230.0874 Q1282.0555,230.0874 1282.0828,230.0601 Q1282.1375,230.0327 1282.1375,229.896 L1282.1375,215.7319 Q1282.1375,215.5952 1282.0828,215.5679 Q1282.0555,215.5405 1281.7,215.5405 L1278.4188,215.5405 Z "/><text fill="#000000" font-family="sans-serif" font-size="21" font-style="italic" lengthAdjust="spacingAndGlyphs" textLength="140" x="1316.6125" y="232.2664">TagRepository</text><line style="stroke: #A80036; stroke-width: 2.625;" x1="1222.375" x2="1497.125" y1="250.5405" y2="250.5405"/><line style="stroke: #A80036; stroke-width: 2.625;" x1="1222.375" x2="1497.125" y1="264.5405" y2="264.5405"/><ellipse cx="1239.875" cy="283.7905" fill="#84BE84" rx="5.25" ry="5.25" style="stroke: #038048; stroke-width: 1.75;"/><text fill="#000000" font-family="sans-serif" font-size="19.25" font-style="italic" lengthAdjust="spacingAndGlyphs" textLength="133" x="1255.625" y="293.601">findByDeleted()</text><ellipse cx="1239.875" cy="310.0807" fill="#84BE84" rx="5.25" ry="5.25" style="stroke: #038048; stroke-width: 1.75;"/><text fill="#000000" font-family="sans-serif" font-size="19.25" font-style="italic" lengthAdjust="spacingAndGlyphs" textLength="182" x="1255.625" y="319.8911">findByIdAndDeleted()</text><ellipse cx="1239.875" cy="336.3708" fill="#84BE84" rx="5.25" ry="5.25" style="stroke: #038048; stroke-width: 1.75;"/><text fill="#000000" font-family="sans-serif" font-size="19.25" font-style="italic" lengthAdjust="spacingAndGlyphs" textLength="197.75" x="1255.625" y="346.1813">findByIdInAndDeleted()</text><ellipse cx="1239.875" cy="362.661" fill="#84BE84" rx="5.25" ry="5.25" style="stroke: #038048; stroke-width: 1.75;"/><text fill="#000000" font-family="sans-serif" font-size="19.25" font-style="italic" lengthAdjust="spacingAndGlyphs" textLength="217" x="1255.625" y="372.4714">findByNameAndDeleted()</text><ellipse cx="1239.875" cy="388.9512" fill="#84BE84" rx="5.25" ry="5.25" style="stroke: #038048; stroke-width: 1.75;"/><text fill="#000000" font-family="sans-serif" font-size="19.25" font-style="italic" lengthAdjust="spacingAndGlyphs" textLength="232.75" x="1255.625" y="398.7616">findByNameInAndDeleted()</text><!--MD5=[7cae48a7761b6ffd45afe711d2f03c14]
class tech.eportfolio.server.repository.TemplateRepository--><rect fill="#FEFECE" filter="url(#f6mjtnbvbttzf)" height="162.8705" id="tech.eportfolio.server.repository.TemplateRepository" style="stroke: #A80036; stroke-width: 2.625;" width="322" x="66.5" y="541.0405"/><ellipse cx="125.0375" cy="569.0405" fill="#B4A7E5" rx="19.25" ry="19.25" style="stroke: #A80036; stroke-width: 1.75;"/><path d="M119.5688,562.0405 L119.5688,559.0874 L129.9594,559.0874 L129.9594,562.0405 L126.6781,562.0405 Q126.4047,562.0405 126.3227,562.0952 Q126.2406,562.1499 126.2406,562.2319 L126.2406,576.396 Q126.2406,576.478 126.3227,576.5327 Q126.4047,576.5874 126.6781,576.5874 L129.9594,576.5874 L129.9594,579.5405 L119.5688,579.5405 L119.5688,576.5874 L122.85,576.5874 Q123.2055,576.5874 123.2328,576.5601 Q123.2875,576.5327 123.2875,576.396 L123.2875,562.2319 Q123.2875,562.0952 123.2328,562.0679 Q123.2055,562.0405 122.85,562.0405 L119.5688,562.0405 Z "/><text fill="#000000" font-family="sans-serif" font-size="21" font-style="italic" lengthAdjust="spacingAndGlyphs" textLength="194.25" x="156.7125" y="578.7664">TemplateRepository</text><line style="stroke: #A80036; stroke-width: 2.625;" x1="68.25" x2="386.75" y1="597.0405" y2="597.0405"/><line style="stroke: #A80036; stroke-width: 2.625;" x1="68.25" x2="386.75" y1="611.0405" y2="611.0405"/><ellipse cx="85.75" cy="630.2905" fill="#84BE84" rx="5.25" ry="5.25" style="stroke: #038048; stroke-width: 1.75;"/><text fill="#000000" font-family="sans-serif" font-size="19.25" font-style="italic" lengthAdjust="spacingAndGlyphs" textLength="250.25" x="101.5" y="640.101">findAllByHiddenAndDeleted()</text><ellipse cx="85.75" cy="656.5807" fill="#84BE84" rx="5.25" ry="5.25" style="stroke: #038048; stroke-width: 1.75;"/><text fill="#000000" font-family="sans-serif" font-size="19.25" font-style="italic" lengthAdjust="spacingAndGlyphs" textLength="276.5" x="101.5" y="666.3911">findByIdAndHiddenAndDeleted()</text><ellipse cx="85.75" cy="682.8708" fill="#84BE84" rx="5.25" ry="5.25" style="stroke: #038048; stroke-width: 1.75;"/><text fill="#000000" font-family="sans-serif" font-size="19.25" font-style="italic" lengthAdjust="spacingAndGlyphs" textLength="204.75" x="101.5" y="692.6813">findByTitleAndDeleted()</text><!--MD5=[46ae7dc6c459bf741017f32db9be4354]
class tech.eportfolio.server.repository.UserCommentRepository--><rect fill="#FEFECE" filter="url(#f6mjtnbvbttzf)" height="162.8705" id="tech.eportfolio.server.repository.UserCommentRepository" style="stroke: #A80036; stroke-width: 2.625;" width="348.25" x="450.625" y="541.0405"/><ellipse cx="498.1375" cy="569.0405" fill="#B4A7E5" rx="19.25" ry="19.25" style="stroke: #A80036; stroke-width: 1.75;"/><path d="M492.6687,562.0405 L492.6687,559.0874 L503.0594,559.0874 L503.0594,562.0405 L499.7781,562.0405 Q499.5047,562.0405 499.4227,562.0952 Q499.3406,562.1499 499.3406,562.2319 L499.3406,576.396 Q499.3406,576.478 499.4227,576.5327 Q499.5047,576.5874 499.7781,576.5874 L503.0594,576.5874 L503.0594,579.5405 L492.6687,579.5405 L492.6687,576.5874 L495.95,576.5874 Q496.3055,576.5874 496.3328,576.5601 Q496.3875,576.5327 496.3875,576.396 L496.3875,562.2319 Q496.3875,562.0952 496.3328,562.0679 Q496.3055,562.0405 495.95,562.0405 L492.6687,562.0405 Z "/><text fill="#000000" font-family="sans-serif" font-size="21" font-style="italic" lengthAdjust="spacingAndGlyphs" textLength="245" x="527.3625" y="578.7664">UserCommentRepository</text><line style="stroke: #A80036; stroke-width: 2.625;" x1="452.375" x2="797.125" y1="597.0405" y2="597.0405"/><line style="stroke: #A80036; stroke-width: 2.625;" x1="452.375" x2="797.125" y1="611.0405" y2="611.0405"/><ellipse cx="469.875" cy="630.2905" fill="#84BE84" rx="5.25" ry="5.25" style="stroke: #038048; stroke-width: 1.75;"/><text fill="#000000" font-family="sans-serif" font-size="19.25" font-style="italic" lengthAdjust="spacingAndGlyphs" textLength="253.75" x="485.625" y="640.101">findByPortfolioIdAndDeleted()</text><ellipse cx="469.875" cy="656.5807" fill="#84BE84" rx="5.25" ry="5.25" style="stroke: #038048; stroke-width: 1.75;"/><text fill="#000000" font-family="sans-serif" font-size="19.25" font-style="italic" lengthAdjust="spacingAndGlyphs" textLength="253.75" x="485.625" y="666.3911">findByUsernameAndDeleted()</text><ellipse cx="469.875" cy="682.8708" fill="#84BE84" rx="5.25" ry="5.25" style="stroke: #038048; stroke-width: 1.75;"/><text fill="#000000" font-family="sans-serif" font-size="19.25" font-style="italic" lengthAdjust="spacingAndGlyphs" textLength="302.75" x="485.625" y="692.6813">findByUsernameAndIdAndDeleted()</text><!--MD5=[d3104e328eeca379d6b9b17bc8488c55]
class tech.eportfolio.server.repository.UserFollowRepository--><rect fill="#FEFECE" filter="url(#f6mjtnbvbttzf)" height="215.4508" id="tech.eportfolio.server.repository.UserFollowRepository" style="stroke: #A80036; stroke-width: 2.625;" width="579.25" x="860.125" y="514.7905"/><ellipse cx="1037.3125" cy="542.7905" fill="#B4A7E5" rx="19.25" ry="19.25" style="stroke: #A80036; stroke-width: 1.75;"/><path d="M1031.8438,535.7905 L1031.8438,532.8374 L1042.2344,532.8374 L1042.2344,535.7905 L1038.9531,535.7905 Q1038.6797,535.7905 1038.5977,535.8452 Q1038.5156,535.8999 1038.5156,535.9819 L1038.5156,550.146 Q1038.5156,550.228 1038.5977,550.2827 Q1038.6797,550.3374 1038.9531,550.3374 L1042.2344,550.3374 L1042.2344,553.2905 L1031.8438,553.2905 L1031.8438,550.3374 L1035.125,550.3374 Q1035.4805,550.3374 1035.5078,550.3101 Q1035.5625,550.2827 1035.5625,550.146 L1035.5625,535.9819 Q1035.5625,535.8452 1035.5078,535.8179 Q1035.4805,535.7905 1035.125,535.7905 L1031.8438,535.7905 Z "/><text fill="#000000" font-family="sans-serif" font-size="21" font-style="italic" lengthAdjust="spacingAndGlyphs" textLength="210" x="1073.1875" y="552.5164">UserFollowRepository</text><line style="stroke: #A80036; stroke-width: 2.625;" x1="861.875" x2="1437.625" y1="570.7905" y2="570.7905"/><line style="stroke: #A80036; stroke-width: 2.625;" x1="861.875" x2="1437.625" y1="584.7905" y2="584.7905"/><ellipse cx="879.375" cy="604.0405" fill="#84BE84" rx="5.25" ry="5.25" style="stroke: #038048; stroke-width: 1.75;"/><text fill="#000000" font-family="sans-serif" font-size="19.25" font-style="italic" lengthAdjust="spacingAndGlyphs" textLength="351.75" x="895.125" y="613.851">findByDestinationUsernameAndDeleted()</text><ellipse cx="879.375" cy="630.3307" fill="#84BE84" rx="5.25" ry="5.25" style="stroke: #038048; stroke-width: 1.75;"/><text fill="#000000" font-family="sans-serif" font-size="19.25" font-style="italic" lengthAdjust="spacingAndGlyphs" textLength="315" x="895.125" y="640.1411">findBySourceUsernameAndDeleted()</text><ellipse cx="879.375" cy="656.6208" fill="#84BE84" rx="5.25" ry="5.25" style="stroke: #038048; stroke-width: 1.75;"/><text fill="#000000" font-family="sans-serif" font-size="19.25" font-style="italic" lengthAdjust="spacingAndGlyphs" textLength="434" x="895.125" y="666.4313">findBySourceUsernameAndDestinationUsername()</text><ellipse cx="879.375" cy="682.911" fill="#84BE84" rx="5.25" ry="5.25" style="stroke: #038048; stroke-width: 1.75;"/><text fill="#000000" font-family="sans-serif" font-size="19.25" font-style="italic" lengthAdjust="spacingAndGlyphs" textLength="533.75" x="895.125" y="692.7214">findBySourceUsernameAndDestinationUsernameAndDeleted()</text><ellipse cx="879.375" cy="709.2012" fill="#84BE84" rx="5.25" ry="5.25" style="stroke: #038048; stroke-width: 1.75;"/><text fill="#000000" font-family="sans-serif" font-size="19.25" font-style="italic" lengthAdjust="spacingAndGlyphs" textLength="364" x="895.125" y="719.0116">findBySourceUsernameAndIdAndDeleted()</text><!--MD5=[335ee763fad5ab5a7c3fbe0a20c99cd6]
class tech.eportfolio.server.repository.UserLikeRepository--><rect fill="#FEFECE" filter="url(#f6mjtnbvbttzf)" height="189.1606" id="tech.eportfolio.server.repository.UserLikeRepository" style="stroke: #A80036; stroke-width: 2.625;" width="420" x="1501.5" y="527.9155"/><ellipse cx="1608.6875" cy="555.9155" fill="#B4A7E5" rx="19.25" ry="19.25" style="stroke: #A80036; stroke-width: 1.75;"/><path d="M1603.2188,548.9155 L1603.2188,545.9624 L1613.6094,545.9624 L1613.6094,548.9155 L1610.3281,548.9155 Q1610.0547,548.9155 1609.9727,548.9702 Q1609.8906,549.0249 1609.8906,549.1069 L1609.8906,563.271 Q1609.8906,563.353 1609.9727,563.4077 Q1610.0547,563.4624 1610.3281,563.4624 L1613.6094,563.4624 L1613.6094,566.4155 L1603.2188,566.4155 L1603.2188,563.4624 L1606.5,563.4624 Q1606.8555,563.4624 1606.8828,563.4351 Q1606.9375,563.4077 1606.9375,563.271 L1606.9375,549.1069 Q1606.9375,548.9702 1606.8828,548.9429 Q1606.8555,548.9155 1606.5,548.9155 L1603.2188,548.9155 Z "/><text fill="#000000" font-family="sans-serif" font-size="21" font-style="italic" lengthAdjust="spacingAndGlyphs" textLength="190.75" x="1644.5625" y="565.6414">UserLikeRepository</text><line style="stroke: #A80036; stroke-width: 2.625;" x1="1503.25" x2="1919.75" y1="583.9155" y2="583.9155"/><line style="stroke: #A80036; stroke-width: 2.625;" x1="1503.25" x2="1919.75" y1="597.9155" y2="597.9155"/><ellipse cx="1520.75" cy="617.1655" fill="#84BE84" rx="5.25" ry="5.25" style="stroke: #038048; stroke-width: 1.75;"/><text fill="#000000" font-family="sans-serif" font-size="19.25" font-style="italic" lengthAdjust="spacingAndGlyphs" textLength="253.75" x="1536.5" y="626.976">findByPortfolioIdAndDeleted()</text><ellipse cx="1520.75" cy="643.4557" fill="#84BE84" rx="5.25" ry="5.25" style="stroke: #038048; stroke-width: 1.75;"/><text fill="#000000" font-family="sans-serif" font-size="19.25" font-style="italic" lengthAdjust="spacingAndGlyphs" textLength="374.5" x="1536.5" y="653.2661">findByPortfolioIdAndUsernameAndDeleted()</text><ellipse cx="1520.75" cy="669.7458" fill="#84BE84" rx="5.25" ry="5.25" style="stroke: #038048; stroke-width: 1.75;"/><text fill="#000000" font-family="sans-serif" font-size="19.25" font-style="italic" lengthAdjust="spacingAndGlyphs" textLength="253.75" x="1536.5" y="679.5563">findByUsernameAndDeleted()</text><ellipse cx="1520.75" cy="696.036" fill="#84BE84" rx="5.25" ry="5.25" style="stroke: #038048; stroke-width: 1.75;"/><text fill="#000000" font-family="sans-serif" font-size="19.25" font-style="italic" lengthAdjust="spacingAndGlyphs" textLength="274.75" x="1536.5" y="705.8464">findByUsernameAndPortfolioId()</text><!--MD5=[4c0265eb16978f93c97cea8906f5cfb2]
class tech.eportfolio.server.repository.UserRepository--><rect fill="#FEFECE" filter="url(#f6mjtnbvbttzf)" height="268.0311" id="tech.eportfolio.server.repository.UserRepository" style="stroke: #A80036; stroke-width: 2.625;" width="575.75" x="67.375" y="835.0405"/><ellipse cx="273.4375" cy="863.0405" fill="#B4A7E5" rx="19.25" ry="19.25" style="stroke: #A80036; stroke-width: 1.75;"/><path d="M267.9688,856.0405 L267.9688,853.0874 L278.3594,853.0874 L278.3594,856.0405 L275.0781,856.0405 Q274.8047,856.0405 274.7227,856.0952 Q274.6406,856.1499 274.6406,856.2319 L274.6406,870.396 Q274.6406,870.478 274.7227,870.5327 Q274.8047,870.5874 275.0781,870.5874 L278.3594,870.5874 L278.3594,873.5405 L267.9688,873.5405 L267.9688,870.5874 L271.25,870.5874 Q271.6055,870.5874 271.6328,870.5601 Q271.6875,870.5327 271.6875,870.396 L271.6875,856.2319 Q271.6875,856.0952 271.6328,856.0679 Q271.6055,856.0405 271.25,856.0405 L267.9688,856.0405 Z "/><text fill="#000000" font-family="sans-serif" font-size="21" font-style="italic" lengthAdjust="spacingAndGlyphs" textLength="148.75" x="309.3125" y="872.7664">UserRepository</text><line style="stroke: #A80036; stroke-width: 2.625;" x1="69.125" x2="641.375" y1="891.0405" y2="891.0405"/><line style="stroke: #A80036; stroke-width: 2.625;" x1="69.125" x2="641.375" y1="905.0405" y2="905.0405"/><ellipse cx="86.625" cy="924.2905" fill="#84BE84" rx="5.25" ry="5.25" style="stroke: #038048; stroke-width: 1.75;"/><text fill="#000000" font-family="sans-serif" font-size="19.25" font-style="italic" lengthAdjust="spacingAndGlyphs" textLength="171.5" x="102.375" y="934.101">countAllByDeleted()</text><ellipse cx="86.625" cy="950.5807" fill="#84BE84" rx="5.25" ry="5.25" style="stroke: #038048; stroke-width: 1.75;"/><text fill="#000000" font-family="sans-serif" font-size="19.25" font-style="italic" lengthAdjust="spacingAndGlyphs" textLength="155.75" x="102.375" y="960.3911">findAllByDeleted()</text><ellipse cx="86.625" cy="976.8708" fill="#84BE84" rx="5.25" ry="5.25" style="stroke: #038048; stroke-width: 1.75;"/><text fill="#000000" font-family="sans-serif" font-size="19.25" font-style="italic" lengthAdjust="spacingAndGlyphs" textLength="530.25" x="102.375" y="986.6813">findByDeletedAndUpdatedDateBeforeAndBlobUUIDIsNotNull()</text><ellipse cx="86.625" cy="1003.161" fill="#84BE84" rx="5.25" ry="5.25" style="stroke: #038048; stroke-width: 1.75;"/><text fill="#000000" font-family="sans-serif" font-size="19.25" font-style="italic" lengthAdjust="spacingAndGlyphs" textLength="215.25" x="102.375" y="1012.9714">findByEmailAndDeleted()</text><ellipse cx="86.625" cy="1029.4512" fill="#84BE84" rx="5.25" ry="5.25" style="stroke: #038048; stroke-width: 1.75;"/><text fill="#000000" font-family="sans-serif" font-size="19.25" font-style="italic" lengthAdjust="spacingAndGlyphs" textLength="197.75" x="102.375" y="1039.2616">findByIdInAndDeleted()</text><ellipse cx="86.625" cy="1055.7413" fill="#84BE84" rx="5.25" ry="5.25" style="stroke: #038048; stroke-width: 1.75;"/><text fill="#000000" font-family="sans-serif" font-size="19.25" font-style="italic" lengthAdjust="spacingAndGlyphs" textLength="253.75" x="102.375" y="1065.5518">findByUsernameAndDeleted()</text><ellipse cx="86.625" cy="1082.0315" fill="#84BE84" rx="5.25" ry="5.25" style="stroke: #038048; stroke-width: 1.75;"/><text fill="#000000" font-family="sans-serif" font-size="19.25" font-style="italic" lengthAdjust="spacingAndGlyphs" textLength="269.5" x="102.375" y="1091.8419">findByUsernameInAndDeleted()</text><!--MD5=[ba683bd8265717538a878868ffaf2561]
class tech.eportfolio.server.repository.UserTagRepository--><rect fill="#FEFECE" filter="url(#f6mjtnbvbttzf)" height="189.1606" id="tech.eportfolio.server.repository.UserTagRepository" style="stroke: #A80036; stroke-width: 2.625;" width="397.25" x="704.375" y="874.4155"/><ellipse cx="802.8125" cy="902.4155" fill="#B4A7E5" rx="19.25" ry="19.25" style="stroke: #A80036; stroke-width: 1.75;"/><path d="M797.3438,895.4155 L797.3438,892.4624 L807.7344,892.4624 L807.7344,895.4155 L804.4531,895.4155 Q804.1797,895.4155 804.0977,895.4702 Q804.0156,895.5249 804.0156,895.6069 L804.0156,909.771 Q804.0156,909.853 804.0977,909.9077 Q804.1797,909.9624 804.4531,909.9624 L807.7344,909.9624 L807.7344,912.9155 L797.3438,912.9155 L797.3438,909.9624 L800.625,909.9624 Q800.9805,909.9624 801.0078,909.9351 Q801.0625,909.9077 801.0625,909.771 L801.0625,895.6069 Q801.0625,895.4702 801.0078,895.4429 Q800.9805,895.4155 800.625,895.4155 L797.3438,895.4155 Z "/><text fill="#000000" font-family="sans-serif" font-size="21" font-style="italic" lengthAdjust="spacingAndGlyphs" textLength="185.5" x="838.6875" y="912.1414">UserTagRepository</text><line style="stroke: #A80036; stroke-width: 2.625;" x1="706.125" x2="1099.875" y1="930.4155" y2="930.4155"/><line style="stroke: #A80036; stroke-width: 2.625;" x1="706.125" x2="1099.875" y1="944.4155" y2="944.4155"/><ellipse cx="723.625" cy="963.6655" fill="#84BE84" rx="5.25" ry="5.25" style="stroke: #038048; stroke-width: 1.75;"/><text fill="#000000" font-family="sans-serif" font-size="19.25" font-style="italic" lengthAdjust="spacingAndGlyphs" textLength="66.5" x="739.375" y="973.476">findBy()</text><ellipse cx="723.625" cy="989.9557" fill="#84BE84" rx="5.25" ry="5.25" style="stroke: #038048; stroke-width: 1.75;"/><text fill="#000000" font-family="sans-serif" font-size="19.25" font-style="italic" lengthAdjust="spacingAndGlyphs" textLength="215.25" x="739.375" y="999.7661">findByTagIdAndDeleted()</text><ellipse cx="723.625" cy="1016.2458" fill="#84BE84" rx="5.25" ry="5.25" style="stroke: #038048; stroke-width: 1.75;"/><text fill="#000000" font-family="sans-serif" font-size="19.25" font-style="italic" lengthAdjust="spacingAndGlyphs" textLength="351.75" x="739.375" y="1026.0563">findByTagIdInAndUsernameAndDeleted()</text><ellipse cx="723.625" cy="1042.536" fill="#84BE84" rx="5.25" ry="5.25" style="stroke: #038048; stroke-width: 1.75;"/><text fill="#000000" font-family="sans-serif" font-size="19.25" font-style="italic" lengthAdjust="spacingAndGlyphs" textLength="253.75" x="739.375" y="1052.3464">findByUsernameAndDeleted()</text><!--MD5=[ed1227a84980100bd28e45ee86a0f145]
link tech.eportfolio.server.repository.ActivityRepository to tech.eportfolio.server.repository.FeedHistoryRepository--><!--MD5=[6952dcf016c6516bdde27f84ab82e03c]
link tech.eportfolio.server.repository.FeedHistoryRepository to tech.eportfolio.server.repository.PortfolioRepository--><!--MD5=[0064f30129de06ae3501e49b40ff3e21]
link tech.eportfolio.server.repository.PortfolioRepository to tech.eportfolio.server.repository.TagRepository--><!--MD5=[4ba7ba95573fe436d0b8bf50dcc4f4e0]
link tech.eportfolio.server.repository.ActivityRepository to tech.eportfolio.server.repository.TemplateRepository--><!--MD5=[3dad8da5459b11eead3e5529a8bccc57]
link tech.eportfolio.server.repository.TemplateRepository to tech.eportfolio.server.repository.UserCommentRepository--><!--MD5=[261aedd2c62df04536feec90f542b922]
link tech.eportfolio.server.repository.UserCommentRepository to tech.eportfolio.server.repository.UserFollowRepository--><!--MD5=[d05795fcd8379b4f69feb420b3384bf0]
link tech.eportfolio.server.repository.UserFollowRepository to tech.eportfolio.server.repository.UserLikeRepository--><!--MD5=[602eff193f45eabf54fd686cc0780049]
link tech.eportfolio.server.repository.TemplateRepository to tech.eportfolio.server.repository.UserRepository--><!--MD5=[a2aa39e2066be57020fee9d9b333dcaa]
link tech.eportfolio.server.repository.UserRepository to tech.eportfolio.server.repository.UserTagRepository--><!--MD5=[0345920bb702b3245d448de4e2f76657]
@startuml

title __Repository Class Diagram__\n

      interface tech.eportfolio.server.repository.ActivityRepository {
          {abstract} + findByIdNotInAndActivityTypeAndDeleted()
      }
 
      interface tech.eportfolio.server.repository.FeedHistoryRepository {
          {abstract} + findFeedHistoryByUserId()
      }

      interface tech.eportfolio.server.repository.PortfolioRepository {
          {abstract} + findByIdInAndDeleted()
          {abstract} + findByUserIdInAndDeleted()
          {abstract} + findByUsername()
      }
 
      interface tech.eportfolio.server.repository.TagRepository {
          {abstract} + findByDeleted()
          {abstract} + findByIdAndDeleted()
          {abstract} + findByIdInAndDeleted()
          {abstract} + findByNameAndDeleted()
          {abstract} + findByNameInAndDeleted()
      }
 
      interface tech.eportfolio.server.repository.TemplateRepository {
          {abstract} + findAllByHiddenAndDeleted()
          {abstract} + findByIdAndHiddenAndDeleted()
          {abstract} + findByTitleAndDeleted()
      }
      interface tech.eportfolio.server.repository.UserCommentRepository {
          {abstract} + findByPortfolioIdAndDeleted()
          {abstract} + findByUsernameAndDeleted()
          {abstract} + findByUsernameAndIdAndDeleted()
      }

      interface tech.eportfolio.server.repository.UserFollowRepository {
          {abstract} + findByDestinationUsernameAndDeleted()
          {abstract} + findBySourceUsernameAndDeleted()
          {abstract} + findBySourceUsernameAndDestinationUsername()
          {abstract} + findBySourceUsernameAndDestinationUsernameAndDeleted()
          {abstract} + findBySourceUsernameAndIdAndDeleted()
      }
 
      interface tech.eportfolio.server.repository.UserLikeRepository {
          {abstract} + findByPortfolioIdAndDeleted()
          {abstract} + findByPortfolioIdAndUsernameAndDeleted()
          {abstract} + findByUsernameAndDeleted()
          {abstract} + findByUsernameAndPortfolioId()
      }
 
      interface tech.eportfolio.server.repository.UserRepository {
          {abstract} + countAllByDeleted()
          {abstract} + findAllByDeleted()
          {abstract} + findByDeletedAndUpdatedDateBeforeAndBlobUUIDIsNotNull()
          {abstract} + findByEmailAndDeleted()
          {abstract} + findByIdInAndDeleted()
          {abstract} + findByUsernameAndDeleted()
          {abstract} + findByUsernameInAndDeleted()
      }

      interface tech.eportfolio.server.repository.UserTagRepository {
          {abstract} + findBy()
          {abstract} + findByTagIdAndDeleted()
          {abstract} + findByTagIdInAndUsernameAndDeleted()
          {abstract} + findByUsernameAndDeleted()
      }


@enduml

PlantUML version 1.2020.09(Sun May 10 20:51:06 AEST 2020)
(GPL source distribution)
Java Runtime: OpenJDK Runtime Environment
JVM: OpenJDK 64-Bit Server VM
Java Version: 11.0.8+10-b944.31
Operating System: Windows 10
Default Encoding: GBK
Language: en
Country: AU
--></g></svg>